<?xml version="1.0" encoding="utf-8"?>
<!-- Generator: Adobe Illustrator 22.0.1, SVG Export Plug-In . SVG Version: 6.00 Build 0)  -->
<svg version="1.1" id="Capa_1" xmlns="http://www.w3.org/2000/svg" xmlns:xlink="http://www.w3.org/1999/xlink" x="0px" y="0px"
	 viewBox="0 0 566.9 566.9" style="enable-background:new 0 0 566.9 566.9;" xml:space="preserve">
<style type="text/css">
	.st0{fill:rgba(212, 104, 88, 1) ;}
</style>
<g>
	<path class="st0" d="M286.5,240c0,0-110.7-211.6,2.8-210.1C402.9,31.5,286.5,240,286.5,240"/>
	<path class="st0" d="M285.3,327.9c0,0-116.4,208.5-2.8,210.1C396,539.4,285.3,327.9,285.3,327.9"/>
	<path class="st0" d="M325,282.7c0,0,211.6-110.7,210,2.8C533.5,399,325,282.7,325,282.7"/>
	<path class="st0" d="M243,281.6c0,0-208.5-116.4-210.1-2.8C31.4,392.3,243,281.6,243,281.6"/>
	<path class="st0" d="M329,240.4c0,0,47.4-151.5,100.1-97.4C481.7,197,329,240.4,329,240.4"/>
	<path class="st0" d="M245.2,323.1c0,0-152.7,43.3-100.1,97.4C197.8,474.6,245.2,323.1,245.2,323.1"/>
	<path class="st0" d="M322.1,324.1c0,0,151.5,47.4,97.4,100.1C365.4,476.9,322.1,324.1,322.1,324.1"/>
	<path class="st0" d="M244.4,239.2c0,0-43.3-152.7-97.4-100.1C92.9,191.8,244.4,239.2,244.4,239.2"/>
	<path class="st0" d="M308.4,286.3c-0.2,13.3-11.1,24-24.5,23.8c-13.3-0.2-24-11.1-23.8-24.5c0.2-13.3,11.1-24,24.5-23.8
		C297.9,262,308.6,273,308.4,286.3"/>
</g>
</svg>
