<?xml version="1.0" encoding="utf-8"?>
<!-- Generator: Adobe Illustrator 22.0.1, SVG Export Plug-In . SVG Version: 6.00 Build 0)  -->
<svg version="1.1" id="Capa_1" xmlns="http://www.w3.org/2000/svg" xmlns:xlink="http://www.w3.org/1999/xlink" x="0px" y="0px"
	 viewBox="0 0 566.9 566.9" style="enable-background:new 0 0 566.9 566.9;" xml:space="preserve">
<style type="text/css">
	.st0{fill:#EC6B59;}
</style>
<g>
	<path class="st0" d="M103.9,118.7l-15.5-7.6c-0.3-0.1-0.8-0.4-1-0.7c-0.8-0.8-0.9-2.3,0.1-3.3c0.9-0.8,2-0.8,3.1-0.3l12,6.3
		L96.4,101c-0.5-1.1-0.5-2.3,0.4-3.1l0.2-0.2c0.9-0.9,2.1-0.9,3.1-0.4l12.1,6.3l-6.1-12.2c-0.5-1-0.6-2.1,0.4-3
		c0.9-0.9,2.4-0.9,3.2,0c0.3,0.3,0.5,0.7,0.6,0.9l7.4,15.8c0.7,1.4,0.4,2.6-0.4,3.5l-0.1,0.1c-0.9,0.8-2.1,1.1-3.4,0.4l-11.9-6.1
		l5.9,12c0.7,1.3,0.4,2.5-0.4,3.3l-0.1,0.1C106.5,119.2,105.2,119.4,103.9,118.7"/>
	<path class="st0" d="M141.5,89c-5,3.6-11.5,2.8-15.3-2.6l0-0.1c-3.6-4.9-3-11.5,2-15.1c5.5-4,11.5-1.4,14.4,2.6
		c0.8,1.1,0.5,2.5-0.5,3.2l-10.8,7.8c2.5,2.5,5.6,2.6,8.1,0.8c1.7-1.2,2.6-2.7,3-4.5c0.1-0.4,0.3-0.8,0.8-1.1
		c0.9-0.6,2.1-0.4,2.7,0.5c0.4,0.5,0.4,1.1,0.4,1.6C145.5,84.8,144.2,87.1,141.5,89 M138,75.9c-2.1-2.4-5.1-3.3-7.7-1.4
		c-2.4,1.7-2.8,4.8-1.2,7.8L138,75.9z"/>
	<path class="st0" d="M147.9,52c-0.7-1.2-0.3-2.6,0.9-3.3c1.2-0.7,2.7-0.3,3.3,0.9l12.3,21.8c0.7,1.2,0.2,2.6-1,3.3
		c-1.2,0.7-2.6,0.3-3.3-0.9L147.9,52z"/>
	<path class="st0" d="M174,57L174,57c-2.4-5.6-0.1-12.2,5.8-14.7c3.1-1.3,5.6-1.2,7.9-0.5c0.4,0.1,1,0.5,1.4,1.3
		c0.5,1.1-0.1,2.4-1.2,2.9c-0.6,0.2-1.1,0.2-1.5,0.1c-1.6-0.5-3.1-0.6-4.9,0.1c-3.3,1.4-4.5,5.2-3,8.7l0,0.1
		c1.5,3.5,5.1,5.2,8.5,3.8c1.8-0.8,2.9-2,3.6-3.6c0.2-0.3,0.5-0.8,1-1c1.1-0.5,2.3,0.1,2.8,1.1c0.2,0.6,0.2,1.2,0,1.7
		c-1,2.4-2.7,4.4-5.9,5.8C182.6,65.3,176.4,62.6,174,57"/>
	<path class="st0" d="M204.5,44.9L204.5,44.9c-1.6-6,1.7-12.1,8.1-13.8c6.3-1.7,12.3,1.8,13.8,7.7l0,0.1c1.6,5.8-1.8,12-8.1,13.7
		C212,54.3,206.1,50.8,204.5,44.9 M221.7,40.3L221.7,40.3c-1-3.7-4.4-6-8.1-5c-3.8,1-5.4,4.6-4.4,8.2l0,0.1c1,3.6,4.4,5.9,8.1,4.9
		C221.1,47.4,222.7,43.8,221.7,40.3"/>
	<path class="st0" d="M240.8,27.3c-0.1-1.4,0.8-2.6,2.2-2.7c1.4-0.1,2.5,0.9,2.7,2.2l0.1,1c1.2-2,2.9-4,6.1-4.3
		c3.1-0.3,5.4,1,6.7,3.2c1.5-2.4,3.6-4.1,6.8-4.4c4.6-0.4,7.7,2.2,8.2,7.4l1.1,11.3c0.1,1.4-0.8,2.5-2.2,2.6
		c-1.4,0.1-2.6-0.8-2.7-2.2l-0.9-9.9c-0.3-3.4-2.1-5-4.8-4.8c-2.7,0.2-4.4,2.3-4.1,5.7l0.9,9.8c0.1,1.4-0.9,2.5-2.2,2.6
		c-1.4,0.1-2.6-0.8-2.7-2.2l-0.9-9.9c-0.3-3.3-2.1-5-4.8-4.7c-2.7,0.3-4.4,2.4-4.1,5.7l0.9,9.8c0.1,1.4-0.9,2.5-2.2,2.6
		c-1.3,0.1-2.5-0.8-2.6-2.2L240.8,27.3z"/>
	<path class="st0" d="M299.1,45c-6.2-0.4-10.6-5.3-10.1-11.8l0-0.1c0.4-6.1,5.1-10.8,11.2-10.3c6.8,0.5,9.7,6.3,9.4,11.2
		c-0.1,1.4-1.2,2.3-2.5,2.2l-13.3-1c0.3,3.5,2.6,5.6,5.7,5.8c2.1,0.1,3.7-0.5,5.2-1.5c0.4-0.3,0.7-0.4,1.3-0.4
		c1.1,0.1,1.9,1,1.8,2.1c0,0.6-0.4,1.1-0.8,1.4C304.9,44.3,302.4,45.2,299.1,45 M304.9,32.7c-0.1-3.2-1.8-5.8-5-6
		c-3-0.2-5.2,1.9-5.9,5.2L304.9,32.7z"/>
	<path class="st0" d="M351.3,25.7c0.4-1.3,1.7-2,3-1.6c1.3,0.4,2,1.8,1.6,3l-2.7,8.8c1.9-1.5,4.3-2.6,7.5-1.6
		c4.6,1.4,6.3,5.3,4.9,10l-3.3,10.9c-0.4,1.3-1.7,2-3,1.6c-1.3-0.4-2-1.7-1.6-3l2.9-9.4c1-3.2-0.1-5.5-2.8-6.3
		c-2.7-0.8-5.2,0.5-6.1,3.6l-2.9,9.4c-0.4,1.3-1.8,2-3.1,1.6c-1.3-0.4-2-1.7-1.6-3L351.3,25.7z"/>
	<path class="st0" d="M378.7,52.6L378.7,52.6c2.6-5.6,9.2-8.1,15.1-5.3c5.9,2.8,8.1,9.3,5.5,14.9l0,0.1c-2.6,5.5-9.1,8-15.1,5.2
		C378.3,64.6,376.1,58.1,378.7,52.6 M394.8,60.2L394.8,60.2c1.6-3.5,0.5-7.4-2.9-9.1c-3.5-1.7-7.1,0-8.7,3.4l0,0.1
		c-1.6,3.4-0.5,7.3,3,9C389.7,65.3,393.2,63.5,394.8,60.2"/>
	<path class="st0" d="M417.7,62.8c0.8-1.1,2.3-1.4,3.4-0.6c1.1,0.8,1.4,2.3,0.6,3.4l-0.6,0.8c2.2-0.8,4.8-1.1,7.4,0.7
		c2.5,1.8,3.4,4.2,3,6.7c2.7-0.9,5.4-0.8,8,1.1c3.8,2.7,4.4,6.7,1.4,11l-6.6,9.3c-0.8,1.1-2.3,1.4-3.4,0.6c-1.1-0.8-1.4-2.3-0.6-3.4
		l5.7-8.1c2-2.8,1.7-5.2-0.5-6.7c-2.2-1.5-4.8-1.1-6.8,1.7l-5.7,8c-0.8,1.1-2.3,1.4-3.4,0.6c-1.1-0.8-1.4-2.3-0.6-3.4l5.7-8.1
		c1.9-2.7,1.7-5.1-0.6-6.7c-2.2-1.6-4.9-1-6.8,1.7l-5.7,8c-0.8,1.1-2.3,1.3-3.4,0.6c-1.1-0.8-1.4-2.3-0.6-3.4L417.7,62.8z"/>
	<path class="st0" d="M450.7,114.1c-4.4-4.4-4.6-10.9,0-15.6l0.1-0.1c4.3-4.3,10.9-4.8,15.2-0.6c4.8,4.8,3.3,11.1-0.2,14.6
		c-1,1-2.4,0.9-3.3,0l-9.5-9.4c-2.1,2.8-1.7,5.9,0.6,8.2c1.5,1.4,3.1,2.1,4.9,2.2c0.5,0.1,0.8,0.2,1.2,0.6c0.8,0.8,0.8,2,0,2.8
		c-0.4,0.4-1,0.6-1.5,0.6C455.5,117.4,453,116.5,450.7,114.1 M463,108.6c2-2.5,2.4-5.5,0.1-7.8c-2.1-2.1-5.2-1.9-7.9,0.1L463,108.6z
		"/>
	<path class="st0" d="M493.8,141.6c0.9,1.3,0.6,3-0.7,3.9l-0.3,0.2c-1.3,0.9-3,0.6-3.9-0.8c-0.9-1.3-0.6-3.1,0.7-4l0.3-0.2
		C491.2,139.9,492.9,140.2,493.8,141.6"/>
	<path class="st0" d="M503.8,187.1l13-11.3c0.3-0.2,0.7-0.5,1.1-0.7c1.1-0.4,2.4,0,3,1.4c0.4,1.1,0,2.2-0.9,2.9l-10.5,8.5l13.5-0.8
		c1.2-0.1,2.3,0.5,2.7,1.6l0.1,0.3c0.5,1.2,0,2.3-0.9,3l-10.5,8.6l13.6-0.9c1.1-0.1,2.2,0.3,2.6,1.5c0.5,1.2-0.1,2.5-1.3,3
		c-0.3,0.1-0.8,0.2-1.1,0.2l-17.4,0.6c-1.6,0.1-2.6-0.6-3-1.7l-0.1-0.1c-0.4-1.1-0.2-2.3,1-3.2l10.3-8.5l-13.3,0.7
		c-1.5,0.1-2.5-0.6-2.9-1.7l0-0.1C502.3,189.2,502.6,188,503.8,187.1"/>
	<path class="st0" d="M516.2,233.4c-1.3-6,2-11.7,8.5-13.1l0.1,0c6-1.3,11.8,1.8,13.1,7.8c1.5,6.6-3.3,11.1-8.1,12.2
		c-1.3,0.3-2.5-0.5-2.8-1.7l-2.9-13c-3.3,1.3-4.6,4.1-4,7.2c0.4,2,1.5,3.4,2.9,4.5c0.4,0.3,0.6,0.6,0.7,1.1c0.2,1.1-0.4,2.1-1.5,2.3
		c-0.6,0.1-1.2,0-1.6-0.3C518.5,238.7,516.9,236.6,516.2,233.4 M529.6,235.4c3-1,5-3.3,4.3-6.5c-0.6-2.9-3.3-4.5-6.7-4.2
		L529.6,235.4z"/>
	<path class="st0" d="M547.7,253.9c1.3-0.1,2.5,0.8,2.7,2.2c0.1,1.4-0.8,2.6-2.1,2.7l-24.9,2.6c-1.4,0.1-2.5-0.8-2.7-2.2
		c-0.1-1.3,0.8-2.5,2.2-2.7L547.7,253.9z"/>
	<path class="st0" d="M532.8,275.9L532.8,275.9c6.1,0,11.2,4.7,11.2,11.2c0,3.4-1.1,5.6-2.7,7.5c-0.3,0.3-0.9,0.8-1.7,0.8
		c-1.3,0-2.2-1-2.2-2.3c0-0.6,0.2-1.1,0.5-1.5c1.1-1.2,1.8-2.6,1.8-4.6c0-3.5-3-6.2-6.8-6.2h-0.1c-3.8,0-6.8,2.6-6.9,6.4
		c0,1.9,0.8,3.4,1.9,4.8c0.2,0.3,0.5,0.8,0.5,1.3c0,1.2-1,2.1-2.1,2.1c-0.6,0-1.2-0.2-1.5-0.7c-1.8-1.9-3-4.2-3-7.8
		C521.7,280.6,526.7,275.9,532.8,275.9"/>
	<path class="st0" d="M531.9,308.5L531.9,308.5c6.1,0.9,10.5,6.4,9.5,12.8c-0.9,6.5-6.5,10.5-12.5,9.7l-0.1,0
		c-6-0.8-10.3-6.3-9.4-12.9C520.3,311.7,525.9,307.7,531.9,308.5 M529.4,326.2L529.4,326.2c3.8,0.5,7.3-1.7,7.8-5.5
		c0.5-3.9-2.1-6.8-5.8-7.3l-0.1,0c-3.7-0.5-7.1,1.7-7.7,5.5C523.1,322.8,525.8,325.7,529.4,326.2"/>
	<path class="st0" d="M533.8,348.8c1.3,0.4,2,1.8,1.6,3.1c-0.4,1.3-1.8,2-3.1,1.6l-1-0.3c1.4,1.9,2.5,4.2,1.5,7.3
		c-0.9,2.9-3,4.5-5.5,4.9c1.6,2.3,2.4,4.9,1.4,8c-1.4,4.4-5.1,6.2-10,4.6l-10.8-3.5c-1.3-0.4-2-1.7-1.6-3c0.4-1.3,1.7-2,3.1-1.6
		l9.4,3c3.2,1,5.4,0.1,6.3-2.5c0.8-2.5-0.4-4.9-3.6-6l-9.3-3c-1.3-0.4-2-1.8-1.6-3c0.4-1.3,1.7-2,3.1-1.6l9.5,3c3.2,1,5.4,0,6.2-2.5
		c0.8-2.6-0.5-5-3.6-6l-9.3-3c-1.3-0.4-2-1.8-1.6-3.1c0.4-1.3,1.7-2,3.1-1.6L533.8,348.8z"/>
	<path class="st0" d="M494.8,395.6c2.8-5.5,9-7.7,14.9-4.7l0.1,0c5.4,2.8,7.9,8.9,5.1,14.4c-3.1,6-9.6,6.5-14,4.2
		c-1.2-0.6-1.6-2-1-3.1l6.1-11.9c-3.3-1.1-6.2,0.2-7.6,3c-0.9,1.8-1,3.6-0.7,5.3c0.1,0.5,0.1,0.8-0.2,1.3c-0.5,1-1.6,1.3-2.6,0.8
		c-0.5-0.3-0.9-0.8-1-1.3C493.1,401.2,493.2,398.6,494.8,395.6 M503.8,405.7c3,1.2,6,0.6,7.5-2.2c1.4-2.7,0.3-5.6-2.5-7.5
		L503.8,405.7z"/>
	<path class="st0" d="M492,451.1c1,0.9,1.2,2.4,0.3,3.4c-0.9,1-2.4,1.2-3.4,0.3l-7-6c0.6,2.3,0.7,5-1.5,7.5
		c-3.1,3.7-7.4,3.7-11.1,0.5l-8.7-7.4c-1-0.9-1.2-2.4-0.3-3.4c0.9-1,2.4-1.2,3.4-0.3l7.5,6.4c2.5,2.1,5,2.1,6.9-0.1
		c1.8-2.2,1.6-4.9-0.9-7.1l-7.5-6.4c-1-0.9-1.1-2.4-0.3-3.4c0.9-1,2.4-1.2,3.4-0.3L492,451.1z"/>
	<path class="st0" d="M456.3,465.6L456.3,465.6c4.1,4.6,4,11.6-0.9,16c-4.8,4.4-11.7,4-15.8-0.6l-0.1-0.1c-4.1-4.5-3.9-11.5,1-15.9
		C445.3,460.7,452.2,461.1,456.3,465.6 M443,477.6L443,477.6c2.6,2.8,6.7,3.3,9.5,0.7c2.9-2.6,2.7-6.6,0.2-9.3l-0.1-0.1
		c-2.5-2.8-6.6-3.2-9.4-0.7C440.4,470.9,440.6,474.9,443,477.6"/>
	<path class="st0" d="M431.6,497.6c0.7,1.2,0.4,2.6-0.8,3.4c-1.2,0.7-2.7,0.4-3.4-0.8l-0.5-0.9c-0.2,2.3-0.8,4.8-3.6,6.5
		c-2.6,1.6-5.3,1.5-7.4,0.2c-0.2,2.8-1.4,5.3-4.1,7c-4,2.4-7.9,1.4-10.6-3l-6-9.7c-0.7-1.2-0.4-2.6,0.8-3.3c1.2-0.7,2.6-0.4,3.4,0.8
		l5.2,8.4c1.8,2.9,4.1,3.6,6.4,2.2c2.3-1.4,2.9-4,1.1-6.9l-5.2-8.3c-0.7-1.2-0.3-2.6,0.8-3.3c1.2-0.7,2.6-0.4,3.4,0.8l5.2,8.4
		c1.7,2.8,4.1,3.5,6.4,2.1c2.3-1.4,2.8-4.1,1.1-6.9l-5.2-8.3c-0.7-1.2-0.3-2.6,0.8-3.4c1.1-0.7,2.6-0.4,3.3,0.8L431.6,497.6z"/>
	<path class="st0" d="M371.6,507.8c5.7-2.3,11.8,0,14.3,6.1l0,0.1c2.3,5.6,0.2,11.9-5.5,14.2c-6.3,2.6-11.5-1.3-13.3-5.9
		c-0.5-1.3,0.1-2.6,1.2-3l12.4-5c-1.8-3-4.8-3.9-7.7-2.7c-1.9,0.8-3.1,2.1-4,3.6c-0.2,0.4-0.5,0.7-1,0.9c-1,0.4-2.1-0.1-2.5-1.1
		c-0.2-0.6-0.2-1.2,0-1.6C366.7,511,368.5,509,371.6,507.8 M371.9,521.3c1.5,2.8,4.1,4.4,7.1,3.2c2.8-1.1,3.8-4.1,3-7.3L371.9,521.3
		z"/>
	<path class="st0" d="M307,539.9c-1.6,0.2-2.9-0.9-3.1-2.5l0-0.4c-0.2-1.6,1-2.9,2.5-3.1c1.6-0.2,3,0.9,3.1,2.5l0,0.4
		C309.7,538.4,308.6,539.7,307,539.9"/>
	<path class="st0" d="M240.8,524.5l2.3,17.1c0,0.3,0.1,0.9,0,1.3c-0.2,1.1-1.4,2-2.8,1.7c-1.2-0.3-1.8-1.2-1.9-2.4l-1.4-13.5
		l-6.7,11.8c-0.6,1-1.6,1.6-2.8,1.4l-0.3-0.1c-1.2-0.3-1.9-1.2-2.1-2.4l-1.5-13.5l-6.7,11.8c-0.5,1-1.5,1.6-2.7,1.4
		c-1.3-0.3-2-1.5-1.8-2.7c0.1-0.4,0.3-0.8,0.4-1l9-14.9c0.8-1.4,2-1.8,3.1-1.6l0.2,0c1.2,0.2,2,1.1,2.2,2.6l1.5,13.3l6.7-11.6
		c0.7-1.3,1.8-1.8,3-1.5l0.2,0C239.8,522,240.7,522.9,240.8,524.5"/>
	<path class="st0" d="M195.4,509.5c5.8,2.2,8.6,8.1,6.3,14.2l0,0.1c-2.2,5.7-8,8.9-13.7,6.7c-6.3-2.4-7.5-8.8-5.8-13.4
		c0.5-1.3,1.8-1.8,3-1.4l12.5,4.7c0.7-3.4-0.9-6.1-3.8-7.2c-1.9-0.7-3.7-0.6-5.4-0.1c-0.4,0.1-0.8,0.2-1.3,0c-1-0.4-1.5-1.5-1.1-2.5
		c0.2-0.6,0.7-1,1.1-1.2C189.7,508.5,192.3,508.4,195.4,509.5 M186.4,519.7c-0.8,3.1,0,6,3.1,7.2c2.8,1.1,5.6-0.4,7.2-3.3
		L186.4,519.7z"/>
	<path class="st0" d="M160.8,524.6c-0.6,1.2-2,1.7-3.3,1.1c-1.2-0.6-1.7-2.1-1.1-3.3l11.4-22.3c0.6-1.2,2.1-1.7,3.3-1
		c1.2,0.6,1.7,2,1,3.3L160.8,524.6z"/>
	<path class="st0" d="M150.7,500.1L150.7,500.1c-3.4,5.1-10.1,6.8-15.5,3.2c-2.8-1.8-4.1-4-4.8-6.3c-0.1-0.4-0.2-1.2,0.3-1.8
		c0.7-1,2.1-1.3,3.1-0.6c0.5,0.3,0.8,0.8,0.9,1.2c0.5,1.6,1.2,3,2.8,4c3,2,6.9,0.8,8.9-2.3l0-0.1c2.1-3.2,1.6-7.1-1.6-9.2
		c-1.6-1.1-3.3-1.3-5-1c-0.4,0.1-0.9,0-1.4-0.3c-1-0.6-1.2-2-0.6-2.9c0.4-0.5,0.8-0.8,1.4-0.9c2.6-0.5,5.2-0.2,8.1,1.7
		C152.8,488.3,154,495.1,150.7,500.1"/>
	<path class="st0" d="M123.8,481.4L123.8,481.4c-4.1,4.6-11.1,5.2-16,0.9c-4.9-4.3-5.2-11.2-1.2-15.8l0-0.1c4-4.5,11-5.1,15.9-0.8
		C127.5,469.9,127.8,476.8,123.8,481.4 M110.4,469.6L110.4,469.6c-2.5,2.9-2.6,7,0.3,9.5c2.9,2.6,6.8,1.9,9.3-0.8l0.1-0.1
		c2.5-2.8,2.5-6.9-0.4-9.4C116.7,466.2,112.8,466.8,110.4,469.6"/>
	<path class="st0" d="M89.1,460.9c-1.1,0.9-2.6,0.7-3.4-0.3c-0.9-1.1-0.7-2.6,0.4-3.5l0.8-0.6c-2.3,0.1-4.9-0.2-6.9-2.7
		c-1.9-2.4-2.1-5-1.1-7.3c-2.8,0.1-5.4-0.7-7.4-3.2c-2.9-3.6-2.4-7.7,1.6-10.9l8.8-7.2c1.1-0.9,2.5-0.7,3.4,0.4
		c0.9,1.1,0.7,2.6-0.3,3.4l-7.7,6.2c-2.6,2.1-3.1,4.5-1.3,6.6c1.7,2.1,4.3,2.4,7,0.2l7.6-6.2c1.1-0.9,2.6-0.7,3.4,0.4
		c0.9,1.1,0.7,2.6-0.3,3.4l-7.7,6.2c-2.6,2.1-3,4.5-1.3,6.6c1.7,2.1,4.4,2.3,7,0.2l7.6-6.2c1.1-0.9,2.6-0.7,3.4,0.4
		c0.8,1,0.7,2.5-0.4,3.4L89.1,460.9z"/>
	<path class="st0" d="M71.5,402.6c3,5.4,1.5,11.7-4.2,15l-0.1,0c-5.3,3-11.8,1.7-14.8-3.6c-3.3-5.9-0.1-11.6,4.1-14
		c1.2-0.7,2.5-0.2,3.2,0.8l6.6,11.6c2.8-2.2,3.2-5.3,1.7-8c-1-1.8-2.4-2.8-4.1-3.5c-0.4-0.2-0.7-0.4-1-0.9c-0.5-0.9-0.2-2.1,0.8-2.7
		c0.5-0.3,1.1-0.3,1.6-0.2C67.7,398.2,69.8,399.7,71.5,402.6 M58.1,404.6c-2.6,1.8-3.8,4.7-2.2,7.5c1.5,2.6,4.5,3.3,7.6,2
		L58.1,404.6z"/>
	<path class="st0" d="M26.5,369.7c-1.3,0.4-2.6-0.3-3-1.6c-0.4-1.3,0.3-2.7,1.6-3.1l8.8-2.6c-2.3-0.8-4.5-2.2-5.5-5.4
		c-1.3-4.6,1-8.2,5.7-9.6l10.9-3.2c1.3-0.4,2.6,0.3,3,1.6c0.4,1.3-0.3,2.7-1.6,3l-9.5,2.8c-3.2,0.9-4.5,3.1-3.7,5.8
		c0.8,2.7,3.3,4.1,6.4,3.1l9.4-2.8c1.3-0.4,2.6,0.4,3,1.7c0.4,1.3-0.3,2.6-1.6,3L26.5,369.7z"/>
	<path class="st0" d="M33.8,331.9L33.8,331.9c-6.1,0.9-11.8-3.2-12.7-9.7c-0.9-6.5,3.3-11.9,9.3-12.8l0.1,0c6-0.9,11.7,3.2,12.6,9.7
		C44.1,325.6,39.8,331,33.8,331.9 M31.3,314.2L31.3,314.2c-3.8,0.5-6.5,3.7-6,7.5c0.6,3.9,4,5.9,7.6,5.4l0.1,0
		c3.7-0.5,6.4-3.6,5.8-7.4C38.3,315.7,34.9,313.7,31.3,314.2"/>
	<path class="st0" d="M20.8,293.8c-1.4,0-2.4-1.1-2.4-2.5c0-1.4,1.2-2.4,2.5-2.4l1,0c-1.9-1.4-3.6-3.3-3.5-6.6
		c0.1-3.1,1.6-5.2,3.9-6.3c-2.2-1.8-3.6-4.1-3.6-7.3c0.1-4.6,3.2-7.4,8.4-7.2l11.4,0.3c1.4,0,2.4,1.1,2.4,2.5c0,1.4-1.1,2.4-2.5,2.4
		l-9.9-0.3c-3.4-0.1-5.2,1.4-5.3,4.2c-0.1,2.7,1.7,4.6,5.2,4.7l9.8,0.3c1.4,0,2.4,1.2,2.4,2.5c0,1.4-1.1,2.4-2.5,2.4l-9.9-0.3
		c-3.3-0.1-5.2,1.5-5.3,4.2c-0.1,2.7,1.9,4.6,5.2,4.7l9.8,0.3c1.4,0,2.4,1.2,2.4,2.5c0,1.3-1.1,2.4-2.5,2.4L20.8,293.8z"/>
	<path class="st0" d="M45.3,238c-1.2,6.1-6.5,9.9-13,8.6l-0.1,0c-6-1.2-10.1-6.4-8.9-12.3c1.3-6.6,7.4-8.9,12.2-7.9
		c1.3,0.3,2.1,1.5,1.9,2.7l-2.6,13.1c3.5,0.2,5.9-1.9,6.5-5c0.4-2,0-3.7-0.9-5.3c-0.2-0.4-0.3-0.8-0.2-1.3c0.2-1.1,1.2-1.7,2.3-1.5
		c0.6,0.1,1.1,0.5,1.3,0.9C45.3,232.1,45.9,234.7,45.3,238 M33.8,230.8c-3.2-0.3-5.9,1.1-6.5,4.2c-0.6,2.9,1.3,5.4,4.4,6.5
		L33.8,230.8z"/>
	<path class="st0" d="M53.9,166.3c0.7-1.4,2.4-1.9,3.8-1.2l0.3,0.2c1.4,0.7,1.9,2.4,1.2,3.8c-0.8,1.4-2.4,2-3.8,1.2l-0.3-0.2
		C53.6,169.4,53.1,167.7,53.9,166.3"/>
	<path class="st0" d="M285,266.8c0,0-43.3-82.7,1.1-82.1C330.5,185.2,285,266.8,285,266.8"/>
	<path class="st0" d="M284.5,301.1c0,0-45.5,81.5-1.1,82.1C327.8,383.8,284.5,301.1,284.5,301.1"/>
	<path class="st0" d="M300.1,283.4c0,0,82.7-43.3,82.1,1.1C381.6,328.9,300.1,283.4,300.1,283.4"/>
	<path class="st0" d="M268,283c0,0-81.5-45.5-82.1-1.1C185.2,326.3,268,283,268,283"/>
	<path class="st0" d="M301.6,266.9c0,0,18.5-59.2,39.1-38.1C361.3,250,301.6,266.9,301.6,266.9"/>
	<path class="st0" d="M268.8,299.3c0,0-59.7,16.9-39.1,38.1C250.3,358.5,268.8,299.3,268.8,299.3"/>
	<path class="st0" d="M298.9,299.7c0,0,59.2,18.5,38.1,39.1C315.8,359.4,298.9,299.7,298.9,299.7"/>
	<path class="st0" d="M268.5,266.5c0,0-16.9-59.7-38.1-39.1C209.3,247.9,268.5,266.5,268.5,266.5"/>
	<path class="st0" d="M293.5,284.9c-0.1,5.2-4.4,9.4-9.6,9.3s-9.4-4.4-9.3-9.6c0.1-5.2,4.4-9.4,9.6-9.3
		C289.4,275.4,293.6,279.7,293.5,284.9"/>
</g>
</svg>
