<?xml version="1.0" encoding="utf-8"?>
<!-- Generator: Adobe Illustrator 22.0.1, SVG Export Plug-In . SVG Version: 6.00 Build 0)  -->
<svg version="1.1" id="Capa_1" xmlns="http://www.w3.org/2000/svg" xmlns:xlink="http://www.w3.org/1999/xlink" x="0px" y="0px"
	 viewBox="0 0 566.9 229.6" style="enable-background:new 0 0 566.9 229.6;" xml:space="preserve">
<style type="text/css">
	.st0{fill:#ED6B59;}
</style>
<g>
	<polygon class="st0" points="128.4,97.6 95.5,35.5 84.4,35.5 84.4,117.5 97.1,117.5 97.1,64.9 124.9,117.5 132,117.5 159.7,64.9 
		159.7,117.5 172.4,117.5 172.4,35.5 161.3,35.5 	"/>
	<rect x="189.4" y="56.1" class="st0" width="12.9" height="61.4"/>
	<path class="st0" d="M195.8,51.7c2.2,0,4.1-0.8,5.7-2.2c1.6-1.5,2.3-3.4,2.3-5.5c0-2.1-0.8-3.9-2.3-5.4c-3-2.9-8.1-3-11.2,0
		c-1.6,1.5-2.3,3.3-2.3,5.4c0,2.2,0.8,4,2.3,5.5C191.7,51,193.5,51.7,195.8,51.7"/>
	<path class="st0" d="M303.9,94.9l-12.5,0.2l-0.4,1.3c-0.9,2.7-1.8,3.7-3.7,5.5c-1.8,1.7-3.9,3-6.1,3.7c-5.3,1.8-11.4,1.5-15.8-0.8
		c-2.5-1.3-4.6-2.9-6.2-4.9c-1.6-1.9-2.7-4-3.4-6.3c-0.7-2.3-1-4.6-1-6.9c0-3.6,0.9-7.1,2.6-10.3c1.7-3.2,4.1-5.6,7.1-7.2
		c6.8-3.6,14.5-3.2,20.3,0.7c3.1,2.1,4.8,3.9,6,7.7l0.4,1.4H304l-0.7-2.5c-1-3.3-3.2-9.4-7.3-13.3c-3.5-3.3-7.2-5.6-11.1-6.8
		c-3.8-1.2-7.4-1.8-10.7-1.8c-2,0-4.6,0.3-7.7,0.9c-3.2,0.6-6.6,2-10,4.2c-3.4,2.2-6.2,4.9-8.3,7.9c-2,3-3.6,6.1-4.5,9.2
		c-0.9,3.1-1.4,6.4-1.4,9.9c0,4.7,0.8,9,2.5,13c1.7,4,4,7.4,7,10.3c3,2.8,6.4,5.1,10.3,6.6c3.9,1.5,8,2.3,12.1,2.3
		c6.8,0,13-1.9,18.4-5.5c4.9-3.4,8.8-9.3,10.7-16.1L303.9,94.9z"/>
	<path class="st0" d="M333.3,79.5c-7.7,0-13.9,1.8-18.3,5.4c-4.5,3.7-6.8,8.6-6.8,14.5c0,5.8,2.2,10.6,6.5,14.2
		c4.2,3.6,9.7,5.4,16.4,5.4c4.9,0,9.5-1,13.4-3c2.3-1.2,4.4-2.6,6.2-4.2v5.7h12.5V78.2c0-7.4-2.4-13.2-7.1-17.4
		c-4.7-4.1-10.9-6.1-18.6-6.1c-6.6,0-12.4,1.8-17.2,5.2c-4.9,3.5-7.9,8.2-8.9,13.9l-0.4,2.3h12.5l0.3-1.6c0.4-2.5,1.4-3.2,3.8-4.8
		l0.7-0.5c2.5-1.8,5.8-2.7,9.7-2.7c2.9,0,5.4,0.6,7.4,1.9c2,1.2,3.3,2.7,4.1,4.6c0.8,2,1.2,4,1.2,5.9v0.7H333.3z M323.7,93.1
		c2.2-1.7,5.4-2.6,9.4-2.6h17.5v1.1c0,3.4-1,6.3-3,9c-2.1,2.7-4.5,4.6-7.2,5.6c-5.9,2.2-11.2,2.1-15,0.1c-1.9-0.9-3.1-2-3.7-3.3
		c-0.7-1.4-1-2.6-1-3.7C320.6,96.8,321.7,94.7,323.7,93.1"/>
	<path class="st0" d="M398.7,107.8c-4.2,0-7.7-0.9-10.5-2.8c-2.8-1.8-4.2-4.5-4.5-5.4l-0.4-1.5h-12.6l0.3,2.2c0.8,6,3.8,10.7,8.9,14
		c4.9,3.1,11,4.7,18.1,4.7c7.4,0,13.4-1.7,18-5.1c4.7-3.5,7.1-8.4,7.1-14.6c0-2.4-0.6-4.9-1.6-7.2c-1.1-2.4-3-4.5-5.7-6.2
		c-2.5-1.6-5.6-2.8-9-3.6l-13.8-3c-4.2-1-5.6-2.1-6-2.7c-0.8-1.1-1.2-2.2-1.2-3.3c0-1.6,0.5-2.9,1.5-4.1c1-1.3,2.3-2.1,4-2.6
		c6-1.7,11-0.7,14.3,1.7c2.2,1.6,3.7,3.4,4.3,4.9l0.5,1.3h12.4l-0.6-2.4c-1.2-5.2-4.1-9.5-8.6-12.7c-4.4-3.2-10.1-4.8-16.8-4.8
		c-6.9,0-12.7,1.7-17,5.2c-4.5,3.6-6.7,8.3-6.7,14.1c0,4.3,1.5,8,4.4,10.8c2.8,2.7,6.9,4.7,12,5.7l13.2,2.9c2.7,0.6,4.8,1.5,6.2,2.6
		c1.2,0.9,1.7,2.1,1.7,3.8c0,2.3-0.9,4.1-3,5.5C405.3,107,402.4,107.8,398.7,107.8"/>
	<path class="st0" d="M476.3,60.8c-4.7-4.1-10.9-6.1-18.6-6.1c-6.6,0-12.4,1.8-17.2,5.2c-4.9,3.5-7.9,8.2-8.9,13.9l-0.4,2.3h12.5
		l0.3-1.6c0.4-2.5,1.4-3.2,3.8-4.8l0.7-0.5c2.5-1.8,5.8-2.7,9.7-2.7c2.9,0,5.4,0.6,7.4,1.9c2,1.2,3.3,2.7,4.1,4.6
		c0.8,2,1.2,4,1.2,5.9v0.7h-17.4c-7.7,0-13.9,1.8-18.3,5.4c-4.5,3.7-6.8,8.6-6.8,14.5c0,5.8,2.2,10.6,6.5,14.2
		c4.2,3.6,9.7,5.4,16.4,5.4c4.9,0,9.5-1,13.4-3c2.3-1.2,4.4-2.6,6.2-4.2v5.7h12.5V78.2C483.4,70.8,481,65,476.3,60.8 M444,93.1
		c2.2-1.7,5.4-2.6,9.4-2.6h17.5v1.1c0,3.4-1,6.3-3,9c-2.1,2.7-4.5,4.6-7.2,5.6c-5.9,2.2-11.2,2.1-15,0.1c-1.9-0.9-3.1-2-3.7-3.3
		c-0.7-1.4-1-2.6-1-3.7C440.9,96.8,441.9,94.7,444,93.1"/>
	<path class="st0" d="M129.5,169.5c-0.1-3.3-0.8-6.4-2-9.3c-1.2-2.9-2.9-5.4-5-7.5c-2.1-2.1-4.6-3.7-7.3-4.8
		c-5.6-2.2-12-2.3-18.5,0.3c-3.3,1.3-6.2,3.4-8.5,6.1c-2.3,2.7-3.9,5.5-4.7,8.4c-0.8,2.8-1.3,5.5-1.3,8.1c0,3.5,0.6,6.8,1.9,9.9
		c1.3,3.1,3,5.7,5.3,7.9c2.2,2.1,4.8,3.8,7.7,5c2.9,1.2,5.9,1.8,8.9,1.8c5.3,0,9.9-1.3,13.8-3.9c3.9-2.6,6.8-6.3,8.6-11.1l1-2.6
		h-10.5l-0.5,1.1c-1.2,2.7-2.4,3.4-4.8,4.8c-3.8,2.2-9.2,2.8-13.2,0.7c-1.7-0.9-3.2-2-4.3-3.3c-1.1-1.3-2-2.7-2.5-4.3
		c-0.3-0.9-0.6-1.8-0.8-2.7h36.6L129.5,169.5z M93.3,165.1c0.5-1.7,1.4-3.1,2.5-4.4c1.6-1.8,3.4-3.1,5.4-3.7c4.9-1.6,7.7-1.2,11,0.3
		c1.8,0.8,3.3,2.1,4.5,3.9c0.8,1.2,1.4,2.5,1.8,4H93.3z"/>
	<path class="st0" d="M166.8,169.7c-1.9-1.3-4.3-2.2-6.9-2.8l-10.4-2.3c-3.1-0.7-4-1.5-4.2-1.8c-0.6-0.7-0.8-1.4-0.8-2.2
		c0-1.1,0.3-2,1-2.8c0.7-0.9,1.6-1.4,2.7-1.8c4.4-1.2,7.9-0.5,10.3,1.2c1.5,1.1,2.7,2.4,3,3.4l0.5,1.3h10.2l-0.5-2.4
		c-0.9-4-3.2-7.3-6.6-9.8c-3.4-2.4-7.7-3.7-12.8-3.7c-5.3,0-9.7,1.4-13,4c-3.5,2.8-5.2,6.4-5.2,10.9c0,3.4,1.2,6.2,3.5,8.5
		c2.2,2.1,5.3,3.6,9.2,4.4l9.8,2.2c2,0.5,3.5,1.1,4.5,1.9c0.8,0.6,1.1,1.3,1.1,2.4c0,1.6-0.6,2.8-2,3.7c-1.5,1.1-3.7,1.6-6.3,1.6
		c-3,0-5.6-0.7-7.6-2c-2-1.3-3-3.1-3.1-3.8l-0.4-1.5h-10.4l0.3,2.2c0.6,4.6,2.9,8.3,6.9,10.8c3.8,2.4,8.4,3.6,13.8,3.6
		c5.6,0,10.3-1.3,13.8-3.9c3.7-2.7,5.5-6.5,5.5-11.3c0-1.9-0.4-3.8-1.3-5.6C170.3,172.6,168.9,171,166.8,169.7"/>
	<path class="st0" d="M212.9,133.5h-10.6v13.7h-9.3v9.5h9.3v22.1c0,5.2,1.5,9.3,4.4,12.2c2.9,2.9,6.9,4.4,11.8,4.4
		c3.9,0,5.3-0.6,8.8-2.8l0.9-0.6v-11.3l-3.1,2.2c-0.9,0.6-1.9,1.2-3.1,1.6c-3.6,1.3-5.8,0.6-7.4-1.1c-1.1-1.2-1.6-2.8-1.6-5.1v-21.6
		h15.3v-9.5h-15.3V133.5z"/>
	<path class="st0" d="M265.7,169.9c0,4.9-1.2,8.8-3.6,11.4c-2.3,2.6-5.4,3.8-9.4,3.8c-3,0-5.3-1-7.1-3c-1.9-2.1-2.8-4.8-2.8-8.4
		v-26.5h-10.6v27.7c0,3.6,0.6,6.8,1.9,9.4c1.2,2.6,2.8,4.8,4.7,6.5c1.9,1.6,4,2.8,6.3,3.4c2.2,0.6,4.3,0.9,6.3,0.9
		c3.8,0,7.3-0.8,10.3-2.3c1.4-0.7,2.8-1.6,4-2.6v3.9h10.6v-46.9h-10.6V169.9z"/>
	<path class="st0" d="M321.4,158c5-2.7,10.5-2.4,14.7,0.5c2.3,1.6,3.5,2.8,4.3,5.5l0.4,1.4h10.7l-0.7-2.5c-0.7-2.5-2.4-7.2-5.6-10.2
		c-2.7-2.5-5.5-4.3-8.5-5.2c-2.9-0.9-5.6-1.4-8.2-1.4c-1.5,0-3.4,0.2-5.8,0.7c-2.5,0.5-5,1.6-7.7,3.2c-2.6,1.7-4.8,3.7-6.4,6
		c-1.6,2.3-2.7,4.7-3.4,7c-0.7,2.4-1.1,4.9-1.1,7.5c0,3.6,0.6,6.9,1.9,9.9c1.3,3,3.1,5.7,5.3,7.9c2.3,2.2,4.9,3.9,7.9,5
		c3,1.2,6.1,1.8,9.3,1.8c5.2,0,9.9-1.4,14-4.2c3.8-2.6,6.8-7.1,8.2-12.3l0.7-2.5l-10.4,0.1l-0.4,1.3c-0.6,1.9-1.3,2.7-2.7,3.9
		c-1.3,1.2-2.8,2.1-4.4,2.7c-3.8,1.3-8.3,1.1-11.4-0.5c-1.8-0.9-3.4-2.1-4.5-3.5c-1.1-1.4-2-2.9-2.4-4.5c-0.5-1.7-0.8-3.4-0.8-5
		c0-2.6,0.6-5.2,1.9-7.5C317.5,160.9,319.2,159.2,321.4,158"/>
	<path class="st0" d="M375.8,146.2c-5.1,0-9.5,1.3-13.1,4c-3.8,2.7-6.1,6.3-6.8,10.7l-0.4,2.3h10.4l0.3-1.6c0.3-1.7,0.9-2.1,2.6-3.3
		l0.5-0.4c1.8-1.3,4.2-1.9,7-1.9c2.1,0,3.8,0.5,5.3,1.3c1.4,0.9,2.4,1.9,2.9,3.2c0.6,1.4,0.9,2.8,0.9,4.3l-12.5,0.1
		c-5.9,0-10.6,1.4-14,4.2c-3.5,2.8-5.3,6.6-5.3,11.2c0,4.5,1.7,8.2,5,11c3.2,2.7,7.5,4.1,12.6,4.1c3.8,0,7.2-0.8,10.3-2.3
		c1.4-0.7,2.7-1.6,3.9-2.5v3.7h10.4v-29.9c0-5.7-1.9-10.2-5.5-13.4C386.5,147.8,381.7,146.2,375.8,146.2 M372.6,173.9h12.6v0.3
		c0,2.4-0.7,4.5-2.2,6.4c-1.5,2-3.2,3.3-5.2,4c-4.3,1.6-8.1,1.5-10.8,0.1c-1.3-0.6-2.2-1.4-2.6-2.2c-0.5-0.9-0.7-1.8-0.7-2.5
		c0-1.8,0.7-3.2,2.1-4.3C367.4,174.5,369.7,173.9,372.6,173.9"/>
	<path class="st0" d="M434.8,169.7c-1.9-1.3-4.3-2.2-6.9-2.8l-10.4-2.3c-3.1-0.7-4-1.5-4.2-1.8c-0.6-0.7-0.8-1.4-0.8-2.2
		c0-1.1,0.3-2,1-2.8c0.7-0.9,1.6-1.4,2.7-1.8c4.3-1.2,7.9-0.5,10.3,1.2c1.5,1.1,2.7,2.4,3,3.4l0.5,1.3h10.2l-0.5-2.4
		c-0.9-4-3.2-7.3-6.6-9.8c-3.4-2.4-7.7-3.7-12.8-3.7c-5.3,0-9.7,1.4-13,4c-3.5,2.8-5.2,6.4-5.2,10.9c0,3.4,1.2,6.2,3.5,8.5
		c2.2,2.1,5.3,3.6,9.2,4.4l9.8,2.2c2,0.5,3.5,1.1,4.5,1.9c0.8,0.6,1.1,1.3,1.1,2.4c0,1.6-0.6,2.8-2,3.7c-1.5,1.1-3.7,1.6-6.3,1.6
		c-3,0-5.6-0.7-7.6-2c-2-1.3-3-3.1-3.1-3.8l-0.4-1.5h-10.4l0.3,2.2c0.6,4.6,2.9,8.3,6.9,10.8c3.8,2.4,8.4,3.6,13.8,3.6
		c5.6,0,10.3-1.3,13.8-3.9c3.7-2.7,5.5-6.5,5.5-11.3c0-1.9-0.4-3.8-1.3-5.6C438.3,172.6,436.8,171,434.8,169.7"/>
	<path class="st0" d="M465.8,146.2c-5.1,0-9.5,1.3-13.1,4c-3.8,2.7-6.1,6.3-6.8,10.7l-0.4,2.3h10.4l0.3-1.6c0.3-1.7,0.9-2.1,2.6-3.3
		l0.5-0.4c1.8-1.3,4.2-1.9,7-1.9c2.1,0,3.8,0.5,5.3,1.3c1.4,0.9,2.4,1.9,2.9,3.2c0.6,1.4,0.9,2.8,0.9,4.3l-12.5,0.1
		c-5.9,0-10.6,1.4-14,4.2c-3.5,2.8-5.3,6.6-5.3,11.2c0,4.5,1.7,8.2,5,11c3.2,2.7,7.5,4.1,12.6,4.1c3.8,0,7.2-0.8,10.3-2.3
		c1.4-0.7,2.7-1.6,3.9-2.5v3.7h10.4v-29.9c0-5.7-1.9-10.2-5.5-13.4C476.5,147.8,471.7,146.2,465.8,146.2 M462.6,173.9h12.6v0.3
		c0,2.4-0.7,4.5-2.2,6.4c-1.5,2-3.2,3.3-5.2,4c-4.3,1.6-8.1,1.5-10.8,0.1c-1.3-0.6-2.2-1.4-2.6-2.2c-0.5-0.9-0.7-1.8-0.7-2.5
		c0-1.8,0.7-3.2,2.1-4.3C457.4,174.5,459.7,173.9,462.6,173.9"/>
	<path class="st0" d="M57.8,133.1c-3.9,8-14.9,33.1,0,34.4V133.1z"/>
	<path class="st0" d="M57.8,78.3c-14.9,1.3-3.9,26.4,0,34.4V78.3z"/>
	<path class="st0" d="M52.2,123.2c0,0-36.9,20-36.9,0C15.3,103.3,52.2,123.2,52.2,123.2"/>
	<path class="st0" d="M51.6,130.7c0,0-8,26.7-17.4,17.4C24.9,138.6,51.6,130.7,51.6,130.7"/>
	<path class="st0" d="M52.6,115.9c0,0-26.7-8-17.4-17.4C44.6,89.2,52.6,115.9,52.6,115.9"/>
	<path class="st0" d="M57.8,118.6c-1.6,0.6-2.7,2.1-2.7,3.9c0,1.8,1.1,3.3,2.7,3.9V118.6z"/>
	<path class="st0" d="M510,112.7c3.9-8,14.9-33.1,0-34.4V112.7z"/>
	<path class="st0" d="M510,167.5c14.9-1.3,3.9-26.4,0-34.4V167.5z"/>
	<path class="st0" d="M515.6,122.6c0,0,36.9-20,36.9,0C552.5,142.5,515.6,122.6,515.6,122.6"/>
	<path class="st0" d="M516.2,115.2c0,0,8-26.7,17.4-17.4C542.9,107.2,516.2,115.2,516.2,115.2"/>
	<path class="st0" d="M515.2,129.9c0,0,26.7,8,17.4,17.4C523.1,156.6,515.2,129.9,515.2,129.9"/>
	<path class="st0" d="M510,127.2c1.6-0.6,2.7-2.1,2.7-3.9c0-1.8-1.1-3.3-2.7-3.9V127.2z"/>
</g>
</svg>
