<svg height="512" viewBox="0 0 60 56" width="512" xmlns="http://www.w3.org/2000/svg"><g id="Page-1" fill="none" fill-rule="evenodd"><g id="023---Clean-Towels" fill="rgb(0,0,0)" fill-rule="nonzero"><path id="Shape" d="m60 15c-.0044086-3.8641657-3.1358343-6.99559136-7-7h-30c-.6139894-.00218588-1.2252595.08162814-1.816.249-.374.09-10.252 3.814-16.107 6.025h-.008c-1.14116638.3184781-2.17962802.9288716-3.013 1.771-1.32380792 1.3079591-2.06491739 3.0940473-2.056 4.955.00165998 2.4601953 1.29579169 4.7385962 3.408 6-2.11132439 1.2622685-3.40514467 3.5401211-3.408 6 .00390728 2.4608899 1.29975589 4.7389712 3.413 6-2.70439735 1.6118406-3.99827342 4.8321361-3.160877 7.8670269.83739642 3.0348909 3.59957811 5.1360264 6.747877 5.1329731h30c1.0345827-.0008753 2.0558617-.2332171 2.989-.68.0073256.000475.0146744.000475.022 0l16.089-6.043c2.2977155-1.1319406 3.7914434-3.4308486 3.8922096-5.9902689s-1.2075989-4.9686487-3.4092096-6.2777311c.4990156-.2892091.9562333-.6451593 1.359-1.058 1.3235485-1.3066543 2.0653128-3.0911418 2.058-4.951-.0087489-2.4572471-1.3022299-4.7308908-3.41-5.994.4968092-.2890498.9522661-.6439294 1.354-1.055 1.3228143-1.3069869 2.0638404-3.0914326 2.056-4.951zm-38.265-4.829c.4117593-.1150824.837464-.17262823 1.265-.171h30c2.7600532.0033061 4.9966939 2.2399468 5 5 .0061262 1.3270502-.5226866 2.6005988-1.467 3.533-.3397521.3536115-.7374876.6465017-1.176.866-.054.029-.1.056-.151.082-1.349.5-3.724 1.392-7.405 2.774l-4.444 1.669c.9990268-2.1666289.8248438-4.6930323-.4620736-6.7020567s-3.5090654-3.2235663-5.8949264-3.2219433h-25.528c4.979-1.875 9.856-3.7 10.263-3.829zm-19.735 10.829c-.00570197-1.3294208.52499102-2.6049587 1.472-3.538.60445009-.6136859 1.36245943-1.0539875 2.195-1.275.025-.008.054-.017.083-.028.40802507-.1068972.82820661-.1603443 1.25-.159h30c2.7600532.0033061 4.9966939 2.2399468 5 5-.0072792 1.8708829-1.0513118 3.583466-2.711 4.447-.0292845.0112195-.0579873.0239022-.086.038-.6837757.3420796-1.4384377.5184986-2.203.515h-30c-2.76005315-.0033061-4.99669388-2.2399468-5-5zm0 12c.0049535-2.7593693 2.24063066-4.9950465 5-5h30c2.7600532.0033061 4.9966939 2.2399468 5 5-.0072792 1.8708829-1.0513118 3.583466-2.711 4.447-.0292845.0112195-.0579873.0239022-.086.038-.6837757.3420796-1.4384377.5184986-2.203.515h-30c-2.76005315-.0033061-4.99669388-2.2399468-5-5zm5 17c-2.76142375 0-5-2.2385763-5-5s2.23857625-5 5-5h30c2.7614237 0 5 2.2385763 5 5s-2.2385763 5-5 5zm51-11c.0060505 1.3268379-.5223408 2.6002392-1.466 3.533-.3595423.3640232-.7726533.6709057-1.225.91l-11.959 4.485c1.4901835-3.2024841.3463936-7.0133977-2.661-8.866l13.2-4.952c2.3715385.4231372 4.1015967 2.4810269 4.111 4.89zm0-12c.0061262 1.3270502-.5226866 2.6005988-1.467 3.533-.3397521.3536115-.7374876.6465017-1.176.866-.055.03-.107.057-.153.083l-11.848 4.443c1.4810566-3.2036228.3360535-7.0087083-2.667-8.863l7.811-2.934c2.282-.857 4.055-1.523 5.4-2.026 2.3673388.433176 4.0902095 2.4913761 4.1 4.898z"/><path id="Shape" d="m39 21c0-.5522847-.4477153-1-1-1h-32c-.55228475 0-1 .4477153-1 1s.44771525 1 1 1h32c.5522847 0 1-.4477153 1-1z"/><path id="Shape" d="m39 33c0-.5522847-.4477153-1-1-1h-32c-.55228475 0-1 .4477153-1 1s.44771525 1 1 1h32c.5522847 0 1-.4477153 1-1z"/><path id="Shape" d="m38 44h-32c-.55228475 0-1 .4477153-1 1s.44771525 1 1 1h32c.5522847 0 1-.4477153 1-1s-.4477153-1-1-1z"/><path id="Shape" d="m10 0c-.55228475 0-1 .44771525-1 1v2c0 .55228475.44771525 1 1 1 .5522847 0 1-.44771525 1-1v-2c0-.55228475-.4477153-1-1-1z"/><path id="Shape" d="m9 9c0 .55228475.44771525 1 1 1 .5522847 0 1-.44771525 1-1v-2c0-.55228475-.4477153-1-1-1-.55228475 0-1 .44771525-1 1z"/><path id="Shape" d="m8 4h-2c-.55228475 0-1 .44771525-1 1s.44771525 1 1 1h2c.55228475 0 1-.44771525 1-1s-.44771525-1-1-1z"/><path id="Shape" d="m12 6h2c.5522847 0 1-.44771525 1-1s-.4477153-1-1-1h-2c-.5522847 0-1 .44771525-1 1s.4477153 1 1 1z"/><path id="Shape" d="m58.207 52.793c-.3923789-.3789722-1.0160848-.3735524-1.4018186.0121814s-.3911536 1.0094397-.0121814 1.4018186l1.5 1.5c.3923789.3789722 1.0160848.3735524 1.4018186-.0121814s.3911536-1.0094397.0121814-1.4018186z"/><path id="Shape" d="m53.793 51.207c.3923789.3789722 1.0160848.3735524 1.4018186-.0121814s.3911536-1.0094397.0121814-1.4018186l-1.5-1.5c-.3923789-.3789722-1.0160848-.3735524-1.4018186.0121814s-.3911536 1.0094397-.0121814 1.4018186z"/><path id="Shape" d="m52.293 55.707c.3904999.3903819 1.0235001.3903819 1.414 0l1.5-1.5c.3789722-.3923789.3735524-1.0160848-.0121814-1.4018186s-1.0094397-.3911536-1.4018186-.0121814l-1.5 1.5c-.3903819.3904999-.3903819 1.0235001 0 1.414z"/><path id="Shape" d="m58.293 48.293-1.5 1.5c-.2599566.2510745-.3642126.6228779-.2726972.9725073.0915155.3496295.3645604.6226744.7141899.7141899.3496294.0915154.7214328-.0127406.9725073-.2726972l1.5-1.5c.3789722-.3923789.3735524-1.0160848-.0121814-1.4018186s-1.0094397-.3911536-1.4018186-.0121814z"/></g></g></svg>