<?xml version="1.0" encoding="iso-8859-1"?>
<!-- Generator: Adobe Illustrator 19.0.0, SVG Export Plug-In . SVG Version: 6.00 Build 0)  -->
<svg  version="1.1" id="Capa_1" xmlns="http://www.w3.org/2000/svg" xmlns:xlink="http://www.w3.org/1999/xlink" x="0px" y="0px"
	 viewBox="0 0 511.999 511.999" style="enable-background:new 0 0 511.999 511.999;" xml:space="preserve">
<g>
	<g>
		<path d="M466.826,66.661H45.174C20.266,66.661,0,86.926,0,111.835v103.536c0,24.909,20.266,45.174,45.174,45.174h421.651
			c24.909,0,45.174-20.265,45.174-45.174V111.835C512,86.926,491.734,66.661,466.826,66.661z M496.695,219.13h-297.67
			c-4.16,0-7.531,3.372-7.531,7.531c0,4.159,3.371,7.531,7.531,7.531h291.281c-5.523,6.876-13.994,11.291-23.48,11.291H45.174
			c-9.486,0-17.956-4.413-23.48-11.291H168.9c4.16,0,7.531-3.372,7.531-7.531c0-4.159-3.371-7.531-7.531-7.531H15.305
			c-0.382-3.054-0.19-4.496-0.243-9.408H311.5c4.16,0,7.531-3.372,7.531-7.531c0-4.159-3.371-7.531-7.531-7.531H15.062v-82.825
			c0-16.604,13.508-30.112,30.112-30.112h421.651c16.604,0,30.112,13.508,30.112,30.112v82.825H341.624
			c-4.16,0-7.531,3.372-7.531,7.531c0,4.159,3.371,7.531,7.531,7.531h155.313C496.885,214.55,497.079,216.057,496.695,219.13z"/>
	</g>
</g>
<g>
	<g>
		<circle cx="434.93" cy="169.249" r="10.353"/>
	</g>
</g>
<g>
	<g>
		<circle cx="474.825" cy="169.249" r="10.353"/>
	</g>
</g>
<g>
	<g>
		<path d="M475.896,372.496l-26.386-16.397l26.386-16.397c3.534-2.195,4.618-6.839,2.422-10.372
			c-2.195-3.534-6.841-4.617-10.371-2.422l-25.174,15.643v-29.639c0-4.159-3.371-7.531-7.531-7.531s-7.531,3.372-7.531,7.531v29.64
			l-25.175-15.644c-3.531-2.197-8.177-1.112-10.371,2.422c-2.196,3.533-1.111,8.177,2.422,10.372l26.386,16.397l-26.386,16.397
			c-3.534,2.195-4.618,6.839-2.422,10.372c1.426,2.296,3.886,3.557,6.404,3.557c3.767,0,3.492-1.289,29.143-16.779v29.64
			c0,4.159,3.371,7.531,7.531,7.531s7.531-3.372,7.531-7.531v-29.639c25.677,15.506,25.369,16.778,29.142,16.778
			C479.463,386.425,482.32,376.488,475.896,372.496z"/>
	</g>
</g>
<g>
	<g>
		<path d="M193.764,349.987l-26.386-16.397l26.386-16.397c3.534-2.195,4.618-6.839,2.422-10.372
			c-2.195-3.534-6.841-4.616-10.371-2.422l-25.175,15.644v-29.64c0-4.159-3.371-7.531-7.531-7.531c-4.16,0-7.531,3.372-7.531,7.531
			v29.639l-25.174-15.643c-3.531-2.196-8.177-1.111-10.371,2.422c-2.196,3.533-1.111,8.177,2.422,10.372l26.386,16.397
			l-26.386,16.397c-3.534,2.195-4.618,6.839-2.422,10.372c2.183,3.515,6.822,4.628,10.371,2.422l25.174-15.643v29.639
			c0,4.159,3.371,7.531,7.531,7.531c4.16,0,7.531-3.372,7.531-7.531v-29.64c25.683,15.509,25.37,16.779,29.143,16.779
			C197.332,363.916,200.189,353.977,193.764,349.987z"/>
	</g>
</g>
<g>
	<g>
		<path d="M285.869,419.048l-11.94-7.42l11.94-7.42c3.532-2.196,4.616-6.84,2.421-10.373c-2.196-3.533-6.839-4.617-10.372-2.422
			l-10.728,6.667v-12.63c0-4.159-3.371-7.531-7.531-7.531s-7.531,3.372-7.531,7.531v12.63l-10.727-6.666
			c-3.534-2.197-8.178-1.111-10.372,2.422c-2.196,3.533-1.111,8.177,2.421,10.372l11.94,7.42l-11.94,7.42
			c-3.533,2.195-4.617,6.839-2.421,10.372c2.207,3.551,6.855,4.606,10.372,2.422l10.727-6.666v12.63
			c0,4.159,3.371,7.531,7.531,7.531s7.531-3.372,7.531-7.531v-12.631l10.728,6.667c3.51,2.182,8.163,1.134,10.372-2.422
			C290.486,425.887,289.401,421.243,285.869,419.048z"/>
	</g>
</g>
<g>
	<g>
		<path d="M50.134,319.234c-12.783,0-23.184,10.4-23.184,23.184s10.4,23.184,23.184,23.184c12.784,0,23.184-10.4,23.184-23.184
			S62.917,319.234,50.134,319.234z M50.134,350.539c-4.479,0-8.122-3.643-8.122-8.122c0-4.478,3.643-8.122,8.122-8.122
			c4.479,0,8.122,3.643,8.122,8.122C58.256,346.895,54.613,350.539,50.134,350.539z"/>
	</g>
</g>
<g>
	<g>
		<path d="M321.042,284.827c-12.783,0-23.184,10.4-23.184,23.184s10.4,23.184,23.184,23.184s23.184-10.4,23.184-23.184
			C344.226,295.228,333.825,284.827,321.042,284.827z M321.042,316.134c-4.479,0-8.122-3.643-8.122-8.122
			c0-4.478,3.643-8.122,8.122-8.122c4.479,0,8.122,3.643,8.122,8.122C329.163,312.49,325.52,316.134,321.042,316.134z"/>
	</g>
</g>
<g>
	<g>
		<path d="M279.167,108.937h-45.019c-4.16,0-7.531,3.372-7.531,7.531s3.371,7.531,7.531,7.531h45.019
			c4.16,0,7.531-3.372,7.531-7.531S283.327,108.937,279.167,108.937z"/>
	</g>
</g>
<g>
</g>
<g>
</g>
<g>
</g>
<g>
</g>
<g>
</g>
<g>
</g>
<g>
</g>
<g>
</g>
<g>
</g>
<g>
</g>
<g>
</g>
<g>
</g>
<g>
</g>
<g>
</g>
<g>
</g>
</svg>
