<svg height="423pt" viewBox="0 -75 423.25333 423" width="423pt" xmlns="http://www.w3.org/2000/svg"><path d="m423.253906 208.773438c0-15.015626-4.625-28.96875-12.507812-40.527344-.414063-1.027344-1.101563-1.875-1.933594-2.582032-13.164062-17.566406-34.082031-29.003906-57.671875-29.003906h-9.109375l-60.589844-56.902344c-12.5-11.730468-28.824218-18.191406-45.964844-18.191406h-200.332031c-19.378906 0-35.144531 15.765625-35.144531 35.148438v104.558594c0 .988281.0742188 1.957031.148438 2.921874-.027344.25-.148438.472657-.148438.730469 0 .972657.214844 1.886719.582031 2.726563 3.042969 17.800781 18.546875 31.40625 37.203125 31.40625h.199219c5.140625 19.609375 22.960937 34.132812 44.15625 34.132812 21.199219 0 39.015625-14.523437 44.160156-34.132812h183.785157c5.144531 19.609375 22.964843 34.132812 44.160156 34.132812 21.402344 0 39.367187-14.808594 44.304687-34.703125 14.34375-2.679687 24.703125-15.027343 24.703125-29.714843zm-341.113281 50.765624c-17.671875 0-32.042969-14.371093-32.042969-32.046874 0-17.671876 14.375-32.042969 32.042969-32.042969s32.046875 14.371093 32.046875 32.042969c0 17.675781-14.378906 32.046874-32.046875 32.046874zm272.101563 0c-17.671876 0-32.042969-14.371093-32.042969-32.046874 0-17.671876 14.375-32.042969 32.042969-32.042969 17.667968 0 32.046874 14.371093 32.046874 32.042969 0 17.675781-14.375 32.046874-32.046874 32.046874zm45.519531-35.632812c-1.84375-23.523438-21.53125-42.113281-45.519531-42.113281-24.492188 0-44.488282 19.382812-45.589844 43.613281h-180.917969c-1.101563-24.226562-21.097656-43.613281-45.59375-43.613281-24.449219 0-44.417969 19.316406-45.585937 43.488281-9-.460938-16.664063-5.835938-20.40625-13.527344h5.992187c3.769531 0 6.824219-3.054687 6.824219-6.828125 0-3.773437-3.054688-6.824219-6.824219-6.824219h-8.488281v-101.386718c0-11.855469 9.640625-21.496094 21.492187-21.496094h200.332031c13.65625 0 26.660157 5.148438 36.617188 14.496094l62.558594 58.746094c1.265625 1.191406 2.9375 1.851562 4.675781 1.851562h11.8125c14.296875 0 27.398437 5.179688 37.570313 13.734375-3.570313.226563-6.417969 3.117187-6.417969 6.746094 0 3.773437 3.058593 6.828125 6.828125 6.828125h11.398437c5.71875 9.03125 9.082031 19.695312 9.082031 31.152344 0 6.726562-3.972656 12.519531-9.839843 15.132812zm0 0"/><path d="m293.546875 177.621094h-157.011719c-3.773437 0-6.828125 3.050781-6.828125 6.824218 0 3.773438 3.054688 6.828126 6.828125 6.828126h157.011719c3.769531 0 6.828125-3.054688 6.828125-6.828126 0-3.773437-3.058594-6.824218-6.828125-6.824218zm0 0"/><path d="m191.148438 150.3125v-61.300781c0-3.773438-3.058594-6.824219-6.828126-6.824219h-150.1875c-3.769531 0-6.824218 3.050781-6.824218 6.824219v61.300781c0 3.773438 3.054687 6.828125 6.824218 6.828125h150.1875c3.769532 0 6.828126-3.054687 6.828126-6.828125zm-13.65625-6.824219h-136.53125v-47.648437h136.53125zm0 0"/><path d="m264.550781 95.265625c-9-8.433594-20.757812-13.078125-33.097656-13.078125h-19.828125c-3.769531 0-6.824219 3.050781-6.824219 6.824219v61.300781c0 3.773438 3.054688 6.828125 6.824219 6.828125h101.730469c2.804687 0 5.320312-1.714844 6.351562-4.320313 1.03125-2.605468.359375-5.574218-1.683593-7.488281zm-46.097656 48.222656v-47.648437h13c8.859375 0 17.300781 3.332031 23.761719 9.386718l40.859375 38.261719zm0 0"/><path d="m82.140625 204.175781c-12.859375 0-23.320313 10.457031-23.320313 23.316407 0 12.863281 10.460938 23.320312 23.320313 23.320312s23.320313-10.457031 23.320313-23.320312c0-12.859376-10.460938-23.316407-23.320313-23.316407zm0 32.984375c-5.332031 0-9.667969-4.332031-9.667969-9.667968 0-5.332032 4.335938-9.664063 9.667969-9.664063 5.328125 0 9.667969 4.332031 9.667969 9.664063 0 5.335937-4.339844 9.667968-9.667969 9.667968zm0 0"/><path d="m354.242188 204.175781c-12.859376 0-23.320313 10.457031-23.320313 23.316407 0 12.863281 10.460937 23.320312 23.320313 23.320312 12.859374 0 23.320312-10.457031 23.320312-23.320312 0-12.859376-10.457031-23.316407-23.320312-23.316407zm0 32.984375c-5.328126 0-9.667969-4.332031-9.667969-9.667968 0-5.332032 4.339843-9.664063 9.667969-9.664063 5.332031 0 9.667968 4.332031 9.667968 9.664063 0 5.335937-4.335937 9.667968-9.667968 9.667968zm0 0"/><path d="m129.707031 13.78125h61.441407c3.769531 0 6.824218-3.054688 6.824218-6.828125s-3.054687-6.828125-6.824218-6.828125h-61.441407c-3.769531 0-6.828125 3.054688-6.828125 6.828125s3.058594 6.828125 6.828125 6.828125zm0 0"/><path d="m75.09375 34.261719h95.574219c3.769531 0 6.824219-3.054688 6.824219-6.828125 0-3.773438-3.054688-6.828125-6.824219-6.828125h-95.574219c-3.769531 0-6.828125 3.054687-6.828125 6.828125 0 3.773437 3.058594 6.828125 6.828125 6.828125zm0 0"/></svg>