<svg id="Capa_1" enable-background="new 0 0 512.004 512.004" height="512" viewBox="0 0 512.004 512.004" width="512" xmlns="http://www.w3.org/2000/svg"><g><path d="m211.706 33.23c0 4.142 3.357 7.5 7.5 7.5h50.221c4.143 0 7.5-3.358 7.5-7.5s-3.357-7.5-7.5-7.5h-50.221c-4.143 0-7.5 3.358-7.5 7.5z"/><path d="m267.382 464.959c0-12.718-10.347-23.065-23.065-23.065s-23.065 10.347-23.065 23.065 10.347 23.065 23.065 23.065 23.065-10.346 23.065-23.065zm-31.131 0c0-4.447 3.618-8.065 8.065-8.065s8.065 3.618 8.065 8.065-3.618 8.065-8.065 8.065-8.065-3.617-8.065-8.065z"/><path d="m278.168 101.422h94.515c4.143 0 7.5-3.358 7.5-7.5s-3.357-7.5-7.5-7.5h-94.515c-4.143 0-7.5 3.358-7.5 7.5s3.357 7.5 7.5 7.5z"/><path d="m278.168 131.022h94.515c4.143 0 7.5-3.358 7.5-7.5s-3.357-7.5-7.5-7.5h-94.515c-4.143 0-7.5 3.358-7.5 7.5s3.357 7.5 7.5 7.5z"/><path d="m380.183 153.123c0-4.142-3.357-7.5-7.5-7.5h-94.515c-4.143 0-7.5 3.358-7.5 7.5s3.357 7.5 7.5 7.5h94.515c4.142 0 7.5-3.358 7.5-7.5z"/><path d="m227.475 0h-87.78c-22.934 0-41.592 18.658-41.592 41.592v428.819c0 22.934 18.658 41.593 41.592 41.593h209.244c22.935 0 41.593-18.659 41.593-41.593v-275.778c13.265-2.364 23.37-13.976 23.37-27.909v-86.673c0-13.934-10.105-25.544-23.37-27.908v-10.551c-.001-22.934-18.659-41.592-41.594-41.592h-86.464c-4.143 0-7.5 3.358-7.5 7.5s3.357 7.5 7.5 7.5h86.464c14.663 0 26.593 11.929 26.593 26.592v10.104c-9.792 0-224.926 0-235.837 0-5.806 0-10.528 4.723-10.528 10.527v362.494c0 5.806 4.723 10.529 10.528 10.529h209.244c5.806 0 10.528-4.723 10.528-10.529v-101.575c0-4.142-3.357-7.5-7.5-7.5s-7.5 3.358-7.5 7.5v97.104h-200.3v-314.626h93.309v61.104c0 .732.037 1.454.092 2.172-42.483 3.449-76.004 39.1-76.004 82.456 0 45.824 37.306 82.754 82.754 82.754 45.518 0 82.755-37.072 82.755-82.754 0-21.261-8-41.176-22.06-56.273h35.578c-.82 1.503-.241.539-12.111 19.2-2.655 4.174-2.264 9.491.975 13.231 3.294 3.804 8.56 4.835 12.957 2.856l2.057-.926v58.703c0 4.142 3.357 7.5 7.5 7.5s7.5-3.358 7.5-7.5v-65.654c6.068-3.28 11.496-7.514 16.064-12.414v260.338c0 14.663-11.93 26.593-26.593 26.593h-209.245c-14.663 0-26.592-11.93-26.592-26.593v-428.821c0-14.663 11.929-26.592 26.592-26.592h87.78c4.143 0 7.5-3.358 7.5-7.5s-3.357-7.5-7.499-7.5zm-59.304 90.62h-24.005v-23.924h24.005zm69.304-10.569v10.568h-54.304v-23.923h57.65c-2.15 3.999-3.346 8.693-3.346 13.355zm47.456 225.498c-11.982 9.002-26.398 13.557-40.614 13.557-14.186 0-28.598-4.531-40.613-13.557v-17.656c0-9.141 7.437-16.578 16.577-16.578h48.072c9.142 0 16.578 7.437 16.578 16.578zm-60.629-69.249c0-11.036 8.979-20.015 20.015-20.015s20.015 8.979 20.015 20.015-8.979 20.015-20.015 20.015-20.015-8.979-20.015-20.015zm87.769 15.052c0 14.352-4.498 27.666-12.141 38.633v-2.092c0-15.904-11.82-29.093-27.135-31.259 4.108-5.737 6.536-12.755 6.536-20.333 0-19.307-15.707-35.015-35.015-35.015s-35.015 15.708-35.015 35.015c0 7.578 2.428 14.596 6.536 20.333-15.315 2.167-27.135 15.356-27.135 31.259v2.093c-7.642-10.968-12.141-24.282-12.141-38.634 0-36.942 29.719-67.072 66.503-67.743 5.358 7.205 13.809 11.47 22.764 11.47h16.205c18.851 12.638 30.038 33.519 30.038 56.273zm60.459-63.127c-4.966 10.22-12.956 17.955-24.403 23.113 3.888-6.113 6.46-9.706 8.86-16.144 2.734-7.337-2.686-15.115-10.456-15.115-15.951 0-63.802 0-80.701 0-7.484 0-13.355-6.253-13.355-13.355 0-8.624 0-77.986 0-86.672 0-7.364 5.991-13.355 13.355-13.355h119.716c7.364 0 13.355 5.991 13.355 13.355v86.672c0 7.364-5.991 13.355-13.355 13.355-5.53 0-10.643 3.257-13.016 8.146z"/></g></svg>