<svg height="512" viewBox="0 0 64 64" width="512" xmlns="http://www.w3.org/2000/svg"><g id="Journey"><path d="m61 9h-51v-6a1 1 0 0 0 -1-1 7.008 7.008 0 0 0 -7 7v41a5 5 0 0 0 5 5h47v6a1 1 0 0 0 1 1 7.008 7.008 0 0 0 7-7v-45a1 1 0 0 0 -1-1zm-53-4.9v4.9h-4a5.009 5.009 0 0 1 4-4.9zm46 35.92a28.292 28.292 0 0 1 -5 4.75c-1.9-1.41-8-6.36-8-11.77a7.986 7.986 0 0 1 13-6.23zm6 14.98a5.009 5.009 0 0 1 -4 4.9v-40.01a6.945 6.945 0 0 0 4-3zm-5-37a1 1 0 0 0 -1 1v5.35a9.986 9.986 0 0 0 -15 8.65c0 7.45 9.06 13.57 9.45 13.83a.975.975 0 0 0 1.1 0 29.637 29.637 0 0 0 4.45-3.79v9.96h-47a3.009 3.009 0 0 1 -3-3v-39h56c0 2.99-2.47 7-5 7z"/><path d="m21 23a5 5 0 1 0 -5 5 5.006 5.006 0 0 0 5-5zm-8 0a3 3 0 1 1 3 3 3 3 0 0 1 -3-3z"/><path d="m15.445 36.832a1 1 0 0 0 1.11 0c.385-.257 9.445-6.382 9.445-13.832a10 10 0 0 0 -20 0c0 7.45 9.06 13.575 9.445 13.832zm.555-21.832a8.009 8.009 0 0 1 8 8c0 5.414-6.1 10.363-8 11.771-1.9-1.408-8-6.357-8-11.771a8.009 8.009 0 0 1 8-8z"/><path d="m49 28a5 5 0 1 0 5 5 5.006 5.006 0 0 0 -5-5zm0 8a3 3 0 1 1 3-3 3 3 0 0 1 -3 3z"/><path d="m52 49v2h-17.5a3.5 3.5 0 0 1 -3.5-3.5 1.5 1.5 0 0 0 -1.5-1.5h-19a3.5 3.5 0 0 1 0-7h9.5v2h-9.5a1.5 1.5 0 0 0 0 3h19a3.5 3.5 0 0 1 3.5 3.5 1.5 1.5 0 0 0 1.5 1.5z"/><path d="m29 21h22a1 1 0 0 0 1-1v-6a1 1 0 0 0 -1-1h-22a1 1 0 0 0 -1 1v6a1 1 0 0 0 1 1zm1-6h20v4h-20z"/><path d="m28 23h8v2h-8z"/><path d="m28 27h8v2h-8z"/><path d="m28 31h8v2h-8z"/><path d="m28 35h8v2h-8z"/><path d="m28 39h8v2h-8z"/><path d="m38 39h2v2h-2z"/><path d="m38 23h2v2h-2z"/></g></svg>