<svg height="512" viewBox="0 0 60 60" width="512" xmlns="http://www.w3.org/2000/svg"><g id="Page-1" fill="none" fill-rule="evenodd"><g id="020---Cleaning-Products" fill="rgb(0,0,0)" fill-rule="nonzero"><path id="Shape" d="m54.271 12h1.729c1.6568542 0 3-1.3431458 3-3v-6c0-1.65685425-1.3431458-3-3-3h-14.348c-1.2414794.00160405-2.465748.29047256-3.577.844l-4.311 2.156h-1.764c-1.6568542 0-3 1.34314575-3 3s1.3431458 3 3 3h1.764l3.257 1.629c.0731864 3.5996299-.8431017 7.1502893-2.649 10.265-.2737673.4794043-.1072509 1.0899643.372 1.364.1505242.0867566.3212641.1322873.495.132.3583279.001065.6898369-.1896767.869-.5 1.8166062-3.1507129 2.819484-6.7044335 2.918-10.34.8441261.2953443 1.7317011.447442 2.626.45h.077l-5.276 21.748c-.300808 1.1535759-.4530397 2.3408495-.453 3.533v17.719c.0033061 2.7600532 2.2399468 4.9966939 5 5h14c2.7600532-.0033061 4.9966939-2.2399468 5-5v-17.719c.0004533-1.1866539-.1504305-2.3685211-.449-3.517zm3.34 22.252c.229211.8986307.353705 1.8207591.371 2.748h-8.982v-17c1.1045695 0 2-.8954305 2-2v-6h1.214zm-8.611-16.252h-2v-6h2zm-18-12c0-.55228475.4477153-1 1-1h1v2h-1c-.5522847 0-1-.44771525-1-1zm10 3.962v-1.962c0-.55228475-.4477153-1-1-1s-1 .44771525-1 1v1.38c-.01-.005-.021-.008-.03-.013l-3.97-1.985v-2.764l3.97-1.985c.009 0 .02-.008.03-.013v1.38c0 .55228475.4477153 1 1 1s1-.44771525 1-1v-1.962c.2164692-.02464638.4341333-.03733232.652-.038h14.348c.5522847 0 1 .44771525 1 1v6c0 .55228475-.4477153 1-1 1h-14.348c-.2178667-.00066768-.4355308-.01335362-.652-.038zm2.786 2.038h1.214v6c0 1.1045695.8954305 2 2 2v17h-8.982c.0175934-.9327426.1434361-1.8602875.375-2.764zm11.214 46h-14c-1.6568542 0-3-1.3431458-3-3v-16h9v14c0 .5522847.4477153 1 1 1s1-.4477153 1-1v-14h9v16c0 1.6568542-1.3431458 3-3 3z"/><path id="Shape" d="m33 26c0-8.369-7.128-14.144-9-15.516v-5.484c-.0033061-2.76005315-2.2399468-4.99669388-5-5h-4c-2.7600532.00330612-4.9966939 2.23994685-5 5v5.484c-1.872 1.372-9 7.147-9 15.516.06207826 3.4451873.39038964 6.880421.982 10.275.624 4.116 1.163 7.67.089 10.353-1.094 2.738-2.612 7.801-.471 10.957 1.081 1.603 2.9 2.415 5.4 2.415h20c2.5 0 4.319-.812 5.4-2.415 2.137-3.156.619-8.219-.475-10.957-1.074-2.683-.535-6.237.089-10.353.5929515-3.3944746.9226002-6.8297091.986-10.275zm-21-21c0-1.65685425 1.3431458-3 3-3h4c1.6568542 0 3 1.34314575 3 3v5h-10zm18.748 51.464c-.7 1.036-1.926 1.536-3.748 1.536h-20c-1.822 0-3.048-.5-3.748-1.536-1.165-1.721-.912-5.12.677-9.092 1.275-3.188.7-6.993.031-11.4-.57490978-3.2945093-.89585423-6.6283197-.96-9.972 0-7.551 6.936-12.991 8.318-14h11.364c1.382 1.009 8.318 6.449 8.318 14-.0639923 3.3446832-.3849373 6.6795025-.96 9.975-.667 4.4-1.244 8.209.031 11.4 1.589 3.969 1.842 7.368.677 9.089z"/><path id="Shape" d="m24 18c-2.8 0-5 3.733-5 8.5s2.2 8.5 5 8.5 5-3.733 5-8.5-2.2-8.5-5-8.5zm0 15c-1.419 0-3-2.669-3-6.5s1.581-6.5 3-6.5 3 2.669 3 6.5-1.581 6.5-3 6.5z"/><path id="Shape" d="m8 53h-2c-.55228475 0-1 .4477153-1 1s.44771525 1 1 1h2c.55228475 0 1-.4477153 1-1s-.44771525-1-1-1z"/><path id="Shape" d="m28 53h-16c-.5522847 0-1 .4477153-1 1s.4477153 1 1 1h16c.5522847 0 1-.4477153 1-1s-.4477153-1-1-1z"/><path id="Shape" d="m26 50c0-.5522847-.4477153-1-1-1h-16c-.55228475 0-1 .4477153-1 1s.44771525 1 1 1h16c.5522847 0 1-.4477153 1-1z"/><circle id="Oval" cx="41" cy="42" r="1"/><circle id="Oval" cx="44" cy="48" r="1"/><circle id="Oval" cx="55" cy="42" r="1"/><circle id="Oval" cx="55" cy="54" r="1"/><circle id="Oval" cx="52" cy="48" r="1"/><circle id="Oval" cx="42" cy="55" r="1"/></g></g></svg>