<?xml version="1.0" encoding="iso-8859-1"?>
<!-- Generator: Adobe Illustrator 19.0.0, SVG Export Plug-In . SVG Version: 6.00 Build 0)  -->
<svg version="1.1" id="Capa_1" xmlns="http://www.w3.org/2000/svg" xmlns:xlink="http://www.w3.org/1999/xlink" x="0px" y="0px"
	 viewBox="0 0 381.28 381.28" style="enable-background:new 0 0 381.28 381.28;" xml:space="preserve">
<g>
	<g>
		<path d="M298.3,102.963c-0.883-0.824-1.965-1.404-3.14-1.683l-34.92-8l-18.4-30.64c-1.904-3.314-6.134-4.456-9.448-2.552
			c-1.062,0.61-1.942,1.491-2.552,2.552l-18.4,30.56l-34.92,8c-3.725,0.854-6.052,4.567-5.198,8.292
			c0.254,1.105,0.775,2.132,1.518,2.988l23.48,27.04l-3.12,35.72c-0.349,3.806,2.453,7.174,6.259,7.523
			c1.14,0.105,2.288-0.075,3.341-0.523l33-14L268.24,182c3.333,1.914,7.587,0.764,9.502-2.569c0.708-1.233,1.022-2.654,0.898-4.071
			l-3.12-35.72l23.12-26.84C301.263,109.99,301.11,105.585,298.3,102.963z M262.96,132.8c-1.229,1.41-1.835,3.256-1.68,5.12
			l2.36,27.16l-25-10.64c-1.714-0.72-3.646-0.72-5.36,0l-25.2,10.6l2.36-27.16c0.182-2.065-0.566-4.103-2.04-5.56l-17.52-20
			l26.52-6.12c1.967-0.464,3.633-1.764,4.56-3.56l13.92-23.12l14.04,23.32c0.968,1.623,2.558,2.779,4.4,3.2l26.52,6.12L262.96,132.8
			z"/>
	</g>
</g>
<g>
	<g>
		<circle cx="127.4" cy="346.92" r="9.8"/>
	</g>
</g>
<g>
	<g>
		<path d="M332.72,50.16L332.72,50.16C306.681,31.839,275.826,21.586,244,20.68c-2.585-5.403-6.458-10.087-11.28-13.64
			c-6.185-4.568-13.671-7.035-21.36-7.04h-168c-9.388,0.007-18.402,3.682-25.12,10.24l-0.4,0.4
			C11.043,17.408,7.227,26.608,7.24,36.2v308.88c-0.002,9.598,3.828,18.799,10.64,25.56c6.751,6.802,15.936,10.632,25.52,10.64h168
			c9.388-0.007,18.402-3.682,25.12-10.24l0.44-0.4c6.797-6.768,10.613-15.968,10.6-25.56V227.4
			c30.608-1.483,60.161-11.653,85.2-29.32c25.52-18.8,41.28-44.92,41.28-73.96S358.24,68.96,332.72,50.16z M233.6,345.08
			c-0.009,5.904-2.37,11.561-6.56,15.72l-0.32,0.32c-4.136,3.984-9.657,6.207-15.4,6.2h-168c-5.899,0.006-11.557-2.341-15.72-6.52
			c-4.179-4.163-6.526-9.821-6.52-15.72V36.2c0.009-5.904,2.37-11.561,6.56-15.72l0.28-0.32c4.132-3.995,9.652-6.232,15.4-6.24h168
			c4.736-0.006,9.349,1.508,13.16,4.32c0.999,0.735,1.935,1.551,2.8,2.44c-21.082,0.869-41.826,5.601-61.2,13.96H63.2
			c-16.153,0.044-29.236,13.127-29.28,29.28v232.76c0.044,16.153,13.127,29.236,29.28,29.28h128.4
			c16.153-0.044,29.236-13.127,29.28-29.28v-69.52c4.187,0.347,8.427,0.547,12.72,0.6V345.08z M107.08,161.8L107.08,161.8
			c5.711,10.786,13.312,20.459,22.44,28.56l-22.88,47.44c-1.663,3.441-0.221,7.579,3.22,9.242c2.164,1.046,4.716,0.894,6.74-0.402
			l52-32c9.886,4.114,20.148,7.261,30.64,9.4c2.667,0.56,5.333,1.053,8,1.48h-0.36v71.16c-0.044,8.465-6.895,15.316-15.36,15.36
			H63.2c-8.465-0.044-15.316-6.895-15.36-15.36V63.92c0.044-8.465,6.895-15.316,15.36-15.36h78.04L139,50.2
			C113.48,69,97.72,95.12,97.72,124.16C97.759,137.278,100.97,150.192,107.08,161.8z M324.52,186.88
			c-22.6,16.64-53.88,26.96-88.68,26.96c-11.372,0.078-22.723-0.994-33.88-3.2c-10.778-2.221-21.28-5.615-31.32-10.12
			c-2.174-0.976-4.698-0.765-6.68,0.56l-34.48,21.56l14.88-30.88c1.444-3.004,0.555-6.611-2.12-8.6
			c-9.371-7.581-17.124-16.967-22.8-27.6c-5.16-9.639-7.905-20.387-8-31.32c0-24.36,13.6-46.56,35.56-62.76
			c22.6-16.64,53.96-26.96,88.68-26.96c34.72,0,66.08,10.32,88.68,26.96c21.96,16,35.56,38.4,35.56,62.76
			S346.64,170.64,324.52,186.88z"/>
	</g>
</g>
<g>
</g>
<g>
</g>
<g>
</g>
<g>
</g>
<g>
</g>
<g>
</g>
<g>
</g>
<g>
</g>
<g>
</g>
<g>
</g>
<g>
</g>
<g>
</g>
<g>
</g>
<g>
</g>
<g>
</g>
</svg>
