<svg height="511pt" viewBox="1 -28 511.999 511" width="511pt" xmlns="http://www.w3.org/2000/svg"><path d="m492.476562 176.851562h-43.25l6.558594-39.363281c.363282-2.171875-.25-4.398437-1.675781-6.078125-1.421875-1.683594-3.515625-2.652344-5.722656-2.652344h-40.078125c-2.207032 0-4.300782.96875-5.722656 2.652344-1.425782 1.679688-2.039063 3.90625-1.675782 6.078125l6.558594 39.363281h-113.546875l-4.269531-17.0625h54.523437c12.976563 0 23.535157-10.554687 23.535157-23.53125v-112.226562c0-12.976562-10.558594-23.53125-23.535157-23.53125h-176.351562c-12.976563 0-23.535157 10.554688-23.535157 23.53125v112.226562c0 12.976563 10.558594 23.53125 23.535157 23.53125h54.523437l-4.269531 17.0625h-90.851563v-24.5625c0-4.140624-3.359374-7.5-7.5-7.5h-88.179687c-4.140625 0-7.5 3.359376-7.5 7.5v24.5625h-4.523437c-10.765626 0-19.523438 8.761719-19.523438 19.527344v24.046875c0 10.765625 8.757812 19.523438 19.523438 19.523438h12.539062v24.078125l-23.984375 183.886718c-.277344 2.140626.378906 4.296876 1.800781 5.917969 1.425782 1.625 3.480469 2.554688 5.636719 2.554688h16.03125c3.527344 0 6.582031-2.460938 7.332031-5.910157l38.792969-178.460937h356.652344l38.796875 178.460937c.75 3.449219 3.800781 5.910157 7.328125 5.910157h16.035156c2.15625 0 4.210937-.929688 5.632813-2.554688 1.425781-1.621093 2.082031-3.777343 1.804687-5.917969l-23.988281-183.886718v-24.078125h12.542968c10.765626 0 19.523438-8.757813 19.523438-19.523438v-24.046875c0-10.765625-8.757812-19.527344-19.523438-19.527344zm-75.316406-33.09375h22.375l-5.515625 33.09375h-11.34375zm-257.871094-7.5v-8.535156h8.53125c4.144532 0 7.5-3.355468 7.5-7.5 0-4.140625-3.355468-7.5-7.5-7.5h-8.53125v-88.691406c0-4.703125 3.828126-8.53125 8.535157-8.53125h176.351562c4.707031 0 8.535157 3.828125 8.535157 8.53125v88.691406h-152.824219c-4.144531 0-7.5 3.359375-7.5 7.5 0 4.144532 3.355469 7.5 7.5 7.5h152.824219v8.535156c0 4.703126-3.828126 8.53125-8.535157 8.53125h-176.351562c-4.707031 0-8.535157-3.828124-8.535157-8.53125zm78.519532 23.53125h36.382812l4.269532 17.0625h-44.921876zm-198.761719 0h73.179687v17.0625h-73.179687zm-24.046875 60.636719v-24.046875c0-2.496094 2.03125-4.523437 4.523438-4.523437h228.976562v33.097656h-228.976562c-2.492188-.003906-4.523438-2.03125-4.523438-4.527344zm10.503906 220.960938h-1.445312l22.089844-169.371094h16.175781zm460.992188 0-36.820313-169.371094h16.175781l22.089844 169.371094zm10.503906-220.960938c0 2.496094-2.03125 4.523438-4.523438 4.523438h-36.070312c-4.140625 0-7.5 3.359375-7.5 7.5 0 4.144531 3.359375 7.5 7.5 7.5h8.53125v17.066406h-417.875v-17.066406h377.273438c4.140624 0 7.5-3.355469 7.5-7.5 0-4.140625-3.359376-7.5-7.5-7.5h-160.835938v-33.097657h228.976562c2.496094 0 4.523438 2.03125 4.523438 4.527344zm0 0"/><path d="m384.257812 200.902344h-8.015624c-4.144532 0-7.5 3.355468-7.5 7.5 0 4.140625 3.355468 7.5 7.5 7.5h8.015624c4.140626 0 7.5-3.359375 7.5-7.5 0-4.144532-3.359374-7.5-7.5-7.5zm0 0"/><path d="m127.742188 215.902344h8.015624c4.144532 0 7.5-3.359375 7.5-7.5 0-4.144532-3.355468-7.5-7.5-7.5h-8.015624c-4.140626 0-7.5 3.355468-7.5 7.5 0 4.140625 3.359374 7.5 7.5 7.5zm0 0"/></svg>