<svg id="Capa_1" enable-background="new 0 0 512 512" height="512" viewBox="0 0 512 512" width="512" xmlns="http://www.w3.org/2000/svg"><g><path d="m494.5 180.5h-12.5v-91.5c0-12.406-10.093-22.5-22.5-22.5h-30c-12.407 0-22.5 10.094-22.5 22.5v91.5h-63.5-.75-16.75v-4c0-16.542-13.458-30-30-30-8.954 0-16.998 3.948-22.5 10.189-5.502-6.241-13.546-10.189-22.5-10.189s-16.998 3.948-22.5 10.189c-5.502-6.241-13.546-10.189-22.5-10.189s-16.998 3.948-22.5 10.189c-5.502-6.241-13.546-10.189-22.5-10.189-16.542 0-30 13.458-30 30v4h-26v-91.5c0-12.406-10.093-22.5-22.5-22.5h-30c-12.407 0-22.5 10.094-22.5 22.5v91.5h-12.5c-9.649 0-17.5 7.851-17.5 17.5v25c0 9.649 7.851 17.5 17.5 17.5h12.5v91.5c0 12.406 10.093 22.5 22.5 22.5h30c12.407 0 22.5-10.094 22.5-22.5v-91.5h26v53.463c0 21.538 7.904 42.244 22.255 58.304l11.479 12.846c5.33 5.966 8.266 13.656 8.266 21.656v36.231c0 12.406 10.093 22.5 22.5 22.5h17.833c4.142 0 7.5-3.357 7.5-7.5s-3.358-7.5-7.5-7.5h-17.833c-4.135 0-7.5-3.364-7.5-7.5v-36.231c0-11.692-4.291-22.933-12.081-31.65l-11.479-12.846c-11.891-13.308-18.44-30.464-18.44-48.31v-27.999c4.416 2.561 9.538 4.036 15 4.036 8.954 0 16.998-3.948 22.5-10.188 5.502 6.24 13.547 10.188 22.5 10.188 8.954 0 16.998-3.948 22.5-10.188 5.502 6.24 13.547 10.188 22.5 10.188 8.954 0 16.998-3.948 22.5-10.188 5.502 6.24 13.547 10.188 22.5 10.188 16.542 0 30-13.458 30-30v-7c0-4.143-3.358-7.5-7.5-7.5h-22.5c-8.271 0-15-6.729-15-15s6.729-15 15-15h46.75.75c12.407 0 22.5 10.094 22.5 22.5v53.114c0 13.76-5.286 26.767-14.885 36.625l-45.647 46.881c-8.685 8.92-13.468 20.689-13.468 33.137v35.243c0 4.136-3.364 7.5-7.5 7.5h-36.167c-4.142 0-7.5 3.357-7.5 7.5s3.358 7.5 7.5 7.5h36.167c12.407 0 22.5-10.094 22.5-22.5v-35.243c0-8.518 3.272-16.569 9.215-22.672l45.647-46.881c12.341-12.676 19.138-29.398 19.138-47.09v-30.614h26v91.5c0 12.406 10.093 22.5 22.5 22.5h30c12.407 0 22.5-10.094 22.5-22.5v-34c0-4.143-3.358-7.5-7.5-7.5s-7.5 3.357-7.5 7.5v34c0 4.136-3.364 7.5-7.5 7.5h-30c-4.136 0-7.5-3.364-7.5-7.5v-243c0-4.136 3.364-7.5 7.5-7.5h30c4.136 0 7.5 3.364 7.5 7.5v174c0 4.143 3.358 7.5 7.5 7.5s7.5-3.357 7.5-7.5v-22.5h12.5c9.649 0 17.5-7.851 17.5-17.5v-25c0-9.649-7.851-17.5-17.5-17.5zm-477 45c-1.378 0-2.5-1.121-2.5-2.5v-25c0-1.379 1.122-2.5 2.5-2.5h12.5v30zm72.5 106.5c0 4.136-3.364 7.5-7.5 7.5h-30c-4.136 0-7.5-3.364-7.5-7.5v-243c0-4.136 3.364-7.5 7.5-7.5h30c4.136 0 7.5 3.364 7.5 7.5zm15-136.5h26v4 26h-26zm56 59.5c-8.271 0-15-6.729-15-15v-40.5-23c0-8.271 6.729-15 15-15s15 6.729 15 15v63.5c0 8.271-6.729 15-15 15zm45 0c-8.271 0-15-6.729-15-15v-63.5c0-8.271 6.729-15 15-15s15 6.729 15 15v63 .5c0 8.271-6.729 15-15 15zm45 0c-8.271 0-15-6.729-15-15v-.5-63c0-8.271 6.729-15 15-15s15 6.729 15 15v34 29.5c0 8.271-6.729 15-15 15zm45-14.5h14.975c-.267 8.039-6.872 14.5-14.975 14.5-8.271 0-15-6.729-15-15v-3.536c4.416 2.561 9.538 4.036 15 4.036zm-15-55.964v-8.036c0-8.271 6.729-15 15-15s15 6.729 15 15v4h-15c-5.462 0-10.584 1.475-15 4.036zm100 40.964v-7.5c0-8.436-2.801-16.228-7.52-22.5h33.52v30zm116-2.5c0 1.379-1.122 2.5-2.5 2.5h-12.5v-30h12.5c1.378 0 2.5 1.121 2.5 2.5z"/></g></svg>