<svg fill='rgb(255,255,255)' id="Layer_1" enable-background="new 0 0 512 512" height="512" viewBox="0 0 512 512" width="512" xmlns="http://www.w3.org/2000/svg"><g><path d="m496 64h-200c-38.633 0-70.959 27.53-78.393 64h-32.467c7.787-54.205 54.535-96 110.86-96h200c8.836 0 16-7.164 16-16s-7.164-16-16-16h-200c-73.994 0-135.121 56.101-143.106 128h-8.149c-66.579 0-120.745 54.166-120.745 120.745v23.255h-8c-8.836 0-16 7.164-16 16v64c0 8.836 7.164 16 16 16h368c8.836 0 16-7.164 16-16v-64c0-8.836-7.164-16-16-16h-8v-23.255c0-66.579-54.166-120.745-120.745-120.745h-4.503c6.605-18.623 24.39-32 45.248-32h200c8.836 0 16-7.164 16-16s-7.164-16-16-16zm-128 272h-336v-32h336zm-24-87.255v23.255h-288v-23.255c0-48.934 39.811-88.745 88.745-88.745h110.511c48.933 0 88.744 39.811 88.744 88.745z"/><path d="m200 384c-8.836 0-16 7.164-16 16v23c0 8.836 7.164 16 16 16s16-7.164 16-16v-23c0-8.836-7.164-16-16-16z"/><path d="m296 384c-8.836 0-16 7.164-16 16v23c0 8.836 7.164 16 16 16s16-7.164 16-16v-23c0-8.836-7.164-16-16-16z"/><path d="m248 457c-8.836 0-16 7.164-16 16v23c0 8.836 7.164 16 16 16s16-7.164 16-16v-23c0-8.836-7.164-16-16-16z"/><path d="m352 457c-8.836 0-16 7.164-16 16v23c0 8.836 7.164 16 16 16s16-7.164 16-16v-23c0-8.836-7.164-16-16-16z"/><path d="m104 384c-8.836 0-16 7.164-16 16v23c0 8.836 7.164 16 16 16s16-7.164 16-16v-23c0-8.836-7.164-16-16-16z"/><path d="m152 457c-8.836 0-16 7.164-16 16v23c0 8.836 7.164 16 16 16s16-7.164 16-16v-23c0-8.836-7.164-16-16-16z"/><path d="m56 457c-8.836 0-16 7.164-16 16v23c0 8.836 7.164 16 16 16s16-7.164 16-16v-23c0-8.836-7.164-16-16-16z"/></g></svg>