<?xml version="1.0" encoding="utf-8"?>
<!-- Generator: Adobe Illustrator 22.0.1, SVG Export Plug-In . SVG Version: 6.00 Build 0)  -->
<svg fill='rgb(255,255,255)' version="1.1" id="Capa_1" xmlns="http://www.w3.org/2000/svg" xmlns:xlink="http://www.w3.org/1999/xlink" x="0px" y="0px"
	 viewBox="0 0 566.9 566.9" style="enable-background:new 0 0 566.9 566.9;" xml:space="preserve">
<g>
	<path d="M483,413.2c-0.7,0.8-1.2,2-2.1,2.4c-2.5,1-5.2,2.4-7.8,2.2c-3.2-0.2-5.2-2.8-5.8-6c-0.3-1.6-0.3-3.2-0.4-4.8
		c0-13.5,0-27,0-40.5c0-1.3,0-2.7,0-4.1c-117.4,0-234.3,0-351.8,0c0,1.6,0,3.1,0,4.5c0,13.4,0,26.7,0,40.1c0,1.6,0,3.3-0.3,4.8
		c-0.7,3.8-4.3,6.6-8.1,6.5c-3.8-0.1-7.1-3.2-7.6-7c-0.1-1-0.1-2-0.1-3c0-86.7,0-173.5,0-260.2c0-1.5,0-3,0.4-4.4
		c1-3.4,4.6-5.8,8-5.6c3.5,0.2,6.6,2.9,7.3,6.5c0.3,1.7,0.4,3.5,0.4,5.2c0,26.2,0,52.5,0,78.9c9.1-26.5,26.7-39.6,55.1-34.2
		c15,2.9,32.2,16.3,34,42.9c0.4-0.7,0.6-1,0.8-1.4c5.8-17,18.5-24.6,35.7-25.8c2.2-0.2,4.5-0.1,6.7-0.1c59,0,118,0,177,0
		c4.2,0,8.5,0.2,12.6,1.1c18.8,4.1,29.6,17.6,30.1,37.5c0.3,10.1,0.1,20.2,0.1,30.4c0,0.9,0.1,1.7,0.2,2.9
		c7.8,0.1,13.5,3.4,15.7,11.2C483,333.2,483,373.2,483,413.2z M466.6,298.5c-117.2,0-234.1,0-351.3,0c0,15.8,0,31.5,0,47.3
		c117.2,0,234.1,0,351.3,0C466.6,330.1,466.6,314.5,466.6,298.5z M219.6,281.8c76.9,0,153.9,0,231.1,0c0-12.1,0.5-24-0.1-35.8
		c-0.5-10.5-6.7-16.9-17-19c-2.9-0.6-5.9-0.6-8.9-0.6c-59.7,0-119.5,0-179.2,0c-1.9,0-3.8,0-5.6,0.1c-11,0.5-19.3,7.3-20,18
		C219,256.7,219.6,269.1,219.6,281.8z M159.5,207.5c-16.7,0-30,13-30.2,29.7c-0.2,16.5,13.6,30.4,30.1,30.4c16.4,0,30-13.6,30-30.1
		C189.5,220.9,176.2,207.6,159.5,207.5z M115.3,282c6.3,0,12.4,0,18.5,0c6,0,11.9,0,17.9,0c-19.2-4.8-31.2-16.6-36.4-36.2
		C115.3,258.3,115.3,270,115.3,282z M202.7,281.8c0-11.1,0-21.8,0-33.4c-6,18.3-17.8,29.2-35.9,33.4
		C178.7,281.8,190.5,281.8,202.7,281.8z"/>
</g>
</svg>
