<?xml version="1.0" encoding="utf-8"?>
<!-- Generator: Adobe Illustrator 22.0.1, SVG Export Plug-In . SVG Version: 6.00 Build 0)  -->
<svg fill='rgb(255,255,255)' version="1.1" id="Capa_1" xmlns="http://www.w3.org/2000/svg" xmlns:xlink="http://www.w3.org/1999/xlink" x="0px" y="0px"
	 viewBox="0 0 566.9 566.9" style="enable-background:new 0 0 566.9 566.9;" xml:space="preserve">
<g>
	<path d="M282.8,127.9c-85.9,0-155.8,69.9-155.8,155.8c0,86,69.9,155.9,155.8,155.9c86,0,155.9-69.9,155.9-155.9
		C438.7,197.9,368.8,127.9,282.8,127.9L282.8,127.9z M321.6,289.3h-25.4v90.4h-37.6v-90.4h-17.9v-31.9h17.9v-20.7
		c0-14.8,7-37.9,37.9-37.9l27.8,0.1v31h-20.2c-3.3,0-8,1.7-8,8.7v18.8h28.6L321.6,289.3z M321.6,289.3"/>
</g>
</svg>
