<?xml version="1.0" encoding="utf-8"?>
<!-- Generator: Adobe Illustrator 22.0.1, SVG Export Plug-In . SVG Version: 6.00 Build 0)  -->
<svg fill='rgb(255,255,255)' version="1.1" id="Capa_1" xmlns="http://www.w3.org/2000/svg" xmlns:xlink="http://www.w3.org/1999/xlink" x="0px" y="0px"
	 viewBox="0 0 566.9 566.9" style="enable-background:new 0 0 566.9 566.9;" xml:space="preserve">
<g>
	<path d="M282.6,256.2c-15.1,0-27.4,12.3-27.4,27.4c0,15.1,12.3,27.4,27.4,27.4c15.1,0,27.4-12.3,27.4-27.4
		C310,268.5,297.7,256.2,282.6,256.2z"/>
	<path d="M318.9,216.9h-72.6c-16.7,0-30.3,13.6-30.3,30.3v72.6c0,16.7,13.6,30.3,30.3,30.3h72.6c16.7,0,30.3-13.6,30.3-30.3v-72.6
		C349.3,230.5,335.7,216.9,318.9,216.9z M282.6,325.3c-23,0-41.8-18.7-41.8-41.8c0-23,18.7-41.8,41.8-41.8c23,0,41.8,18.7,41.8,41.8
		C324.4,306.6,305.6,325.3,282.6,325.3z M333.6,247.6c-2,2-4.7,3.1-7.5,3.1c-2.8,0-5.5-1.1-7.4-3.1c-2-2-3.1-4.7-3.1-7.5
		c0-2.8,1.1-5.5,3.1-7.5c2-2,4.7-3.1,7.4-3.1c2.8,0,5.5,1.1,7.5,3.1c2,2,3.1,4.7,3.1,7.5C336.7,242.9,335.6,245.6,333.6,247.6z"/>
	<path d="M282.6,130.9c-84.3,0-152.6,68.3-152.6,152.6s68.3,152.6,152.6,152.6s152.6-68.3,152.6-152.6S366.9,130.9,282.6,130.9z
		 M363.7,319.9c0,24.7-20.1,44.7-44.7,44.7h-72.6c-24.7,0-44.7-20.1-44.7-44.7v-72.6c0-24.7,20.1-44.7,44.7-44.7h72.6
		c24.7,0,44.7,20.1,44.7,44.7V319.9z"/>
</g>
</svg>
