<?xml version="1.0" encoding="utf-8"?>
<!-- Generator: Adobe Illustrator 22.0.1, SVG Export Plug-In . SVG Version: 6.00 Build 0)  -->
<svg version="1.1" id="Capa_1" xmlns="http://www.w3.org/2000/svg" xmlns:xlink="http://www.w3.org/1999/xlink" x="0px" y="0px"
	 viewBox="0 0 566.9 566.9" style="enable-background:new 0 0 566.9 566.9;" xml:space="preserve">
<style type="text/css">
	.st0{fill:white;}
</style>
<path class="st0" d="M509.1,420.6l-72.9-72.9c-14.5-14.5-38.6-14-53.6,1l-36.7,36.7c-2.3-1.3-4.7-2.6-7.2-4
	c-23.2-12.9-54.9-30.5-88.4-63.9c-33.5-33.5-51.2-65.3-64-88.6c-1.4-2.4-2.7-4.8-4-7.1l24.6-24.6l12.1-12.1
	c15-15.1,15.5-39.1,1-53.6l-72.9-72.9c-14.5-14.5-38.5-14.1-53.6,1L73,80.2l0.5,0.6c-6.9,8.8-12.6,18.9-16.9,29.9
	c-4,10.4-6.4,20.4-7.5,30.3c-9.7,79.8,26.8,152.8,125.8,251.8c136.9,136.8,247.2,126.5,251.9,126c10.3-1.2,20.3-3.7,30.4-7.6
	c10.8-4.2,21-10,29.7-16.9l0.4,0.4l20.9-20.4C523.2,459.2,523.6,435.1,509.1,420.6L509.1,420.6z M509.1,420.6"/>
</svg>
